%TF.GenerationSoftware,KiCad,Pcbnew,8.0.6*%
%TF.CreationDate,2026-09-30T19:37:37-06:00*%
%TF.ProjectId,555_Astable,3535355f-4173-4746-9162-6c652e6b6963,rev?*%
%TF.SameCoordinates,PX6798ff0PY43da9b0*%
%TF.FileFunction,Legend,Top*%
%TF.FilePolarity,Positive*%
%FSLAX46Y46*%
G04 Gerber Fmt 4.6, Leading zero omitted, Abs format (unit mm)*
G04 Created by KiCad (PCBNEW 8.0.6) date 2026-09-30 19:37:37*
%MOMM*%
%LPD*%
G01*
G04 APERTURE LIST*
%ADD10C,0.200000*%
%ADD11C,0.000000*%
%ADD12C,0.120000*%
G04 APERTURE END LIST*
D10*
X39659695Y-11503332D02*
X39278742Y-11769999D01*
X39659695Y-11960475D02*
X38859695Y-11960475D01*
X38859695Y-11960475D02*
X38859695Y-11655713D01*
X38859695Y-11655713D02*
X38897790Y-11579523D01*
X38897790Y-11579523D02*
X38935885Y-11541428D01*
X38935885Y-11541428D02*
X39012076Y-11503332D01*
X39012076Y-11503332D02*
X39126361Y-11503332D01*
X39126361Y-11503332D02*
X39202552Y-11541428D01*
X39202552Y-11541428D02*
X39240647Y-11579523D01*
X39240647Y-11579523D02*
X39278742Y-11655713D01*
X39278742Y-11655713D02*
X39278742Y-11960475D01*
X38859695Y-11236666D02*
X38859695Y-10741428D01*
X38859695Y-10741428D02*
X39164457Y-11008094D01*
X39164457Y-11008094D02*
X39164457Y-10893809D01*
X39164457Y-10893809D02*
X39202552Y-10817618D01*
X39202552Y-10817618D02*
X39240647Y-10779523D01*
X39240647Y-10779523D02*
X39316838Y-10741428D01*
X39316838Y-10741428D02*
X39507314Y-10741428D01*
X39507314Y-10741428D02*
X39583504Y-10779523D01*
X39583504Y-10779523D02*
X39621600Y-10817618D01*
X39621600Y-10817618D02*
X39659695Y-10893809D01*
X39659695Y-10893809D02*
X39659695Y-11122380D01*
X39659695Y-11122380D02*
X39621600Y-11198571D01*
X39621600Y-11198571D02*
X39583504Y-11236666D01*
X14779695Y-18233332D02*
X14398742Y-18499999D01*
X14779695Y-18690475D02*
X13979695Y-18690475D01*
X13979695Y-18690475D02*
X13979695Y-18385713D01*
X13979695Y-18385713D02*
X14017790Y-18309523D01*
X14017790Y-18309523D02*
X14055885Y-18271428D01*
X14055885Y-18271428D02*
X14132076Y-18233332D01*
X14132076Y-18233332D02*
X14246361Y-18233332D01*
X14246361Y-18233332D02*
X14322552Y-18271428D01*
X14322552Y-18271428D02*
X14360647Y-18309523D01*
X14360647Y-18309523D02*
X14398742Y-18385713D01*
X14398742Y-18385713D02*
X14398742Y-18690475D01*
X14055885Y-17928571D02*
X14017790Y-17890475D01*
X14017790Y-17890475D02*
X13979695Y-17814285D01*
X13979695Y-17814285D02*
X13979695Y-17623809D01*
X13979695Y-17623809D02*
X14017790Y-17547618D01*
X14017790Y-17547618D02*
X14055885Y-17509523D01*
X14055885Y-17509523D02*
X14132076Y-17471428D01*
X14132076Y-17471428D02*
X14208266Y-17471428D01*
X14208266Y-17471428D02*
X14322552Y-17509523D01*
X14322552Y-17509523D02*
X14779695Y-17966666D01*
X14779695Y-17966666D02*
X14779695Y-17471428D01*
X34219695Y-12033332D02*
X33838742Y-12299999D01*
X34219695Y-12490475D02*
X33419695Y-12490475D01*
X33419695Y-12490475D02*
X33419695Y-12185713D01*
X33419695Y-12185713D02*
X33457790Y-12109523D01*
X33457790Y-12109523D02*
X33495885Y-12071428D01*
X33495885Y-12071428D02*
X33572076Y-12033332D01*
X33572076Y-12033332D02*
X33686361Y-12033332D01*
X33686361Y-12033332D02*
X33762552Y-12071428D01*
X33762552Y-12071428D02*
X33800647Y-12109523D01*
X33800647Y-12109523D02*
X33838742Y-12185713D01*
X33838742Y-12185713D02*
X33838742Y-12490475D01*
X34219695Y-11271428D02*
X34219695Y-11728571D01*
X34219695Y-11499999D02*
X33419695Y-11499999D01*
X33419695Y-11499999D02*
X33533980Y-11576190D01*
X33533980Y-11576190D02*
X33610171Y-11652380D01*
X33610171Y-11652380D02*
X33648266Y-11728571D01*
X17820476Y-4899695D02*
X17820476Y-5547314D01*
X17820476Y-5547314D02*
X17858571Y-5623504D01*
X17858571Y-5623504D02*
X17896666Y-5661600D01*
X17896666Y-5661600D02*
X17972857Y-5699695D01*
X17972857Y-5699695D02*
X18125238Y-5699695D01*
X18125238Y-5699695D02*
X18201428Y-5661600D01*
X18201428Y-5661600D02*
X18239523Y-5623504D01*
X18239523Y-5623504D02*
X18277619Y-5547314D01*
X18277619Y-5547314D02*
X18277619Y-4899695D01*
X19077618Y-5699695D02*
X18620475Y-5699695D01*
X18849047Y-5699695D02*
X18849047Y-4899695D01*
X18849047Y-4899695D02*
X18772856Y-5013980D01*
X18772856Y-5013980D02*
X18696666Y-5090171D01*
X18696666Y-5090171D02*
X18620475Y-5128266D01*
X59889695Y-5146666D02*
X60461123Y-5146666D01*
X60461123Y-5146666D02*
X60575409Y-5184761D01*
X60575409Y-5184761D02*
X60651600Y-5260952D01*
X60651600Y-5260952D02*
X60689695Y-5375237D01*
X60689695Y-5375237D02*
X60689695Y-5451428D01*
X59965885Y-4803809D02*
X59927790Y-4765713D01*
X59927790Y-4765713D02*
X59889695Y-4689523D01*
X59889695Y-4689523D02*
X59889695Y-4499047D01*
X59889695Y-4499047D02*
X59927790Y-4422856D01*
X59927790Y-4422856D02*
X59965885Y-4384761D01*
X59965885Y-4384761D02*
X60042076Y-4346666D01*
X60042076Y-4346666D02*
X60118266Y-4346666D01*
X60118266Y-4346666D02*
X60232552Y-4384761D01*
X60232552Y-4384761D02*
X60689695Y-4841904D01*
X60689695Y-4841904D02*
X60689695Y-4346666D01*
X11059695Y-18406666D02*
X11631123Y-18406666D01*
X11631123Y-18406666D02*
X11745409Y-18444761D01*
X11745409Y-18444761D02*
X11821600Y-18520952D01*
X11821600Y-18520952D02*
X11859695Y-18635237D01*
X11859695Y-18635237D02*
X11859695Y-18711428D01*
X11859695Y-17606666D02*
X11859695Y-18063809D01*
X11859695Y-17835237D02*
X11059695Y-17835237D01*
X11059695Y-17835237D02*
X11173980Y-17911428D01*
X11173980Y-17911428D02*
X11250171Y-17987618D01*
X11250171Y-17987618D02*
X11288266Y-18063809D01*
X42139695Y-9500475D02*
X41339695Y-9500475D01*
X41339695Y-9500475D02*
X41339695Y-9309999D01*
X41339695Y-9309999D02*
X41377790Y-9195713D01*
X41377790Y-9195713D02*
X41453980Y-9119523D01*
X41453980Y-9119523D02*
X41530171Y-9081428D01*
X41530171Y-9081428D02*
X41682552Y-9043332D01*
X41682552Y-9043332D02*
X41796838Y-9043332D01*
X41796838Y-9043332D02*
X41949219Y-9081428D01*
X41949219Y-9081428D02*
X42025409Y-9119523D01*
X42025409Y-9119523D02*
X42101600Y-9195713D01*
X42101600Y-9195713D02*
X42139695Y-9309999D01*
X42139695Y-9309999D02*
X42139695Y-9500475D01*
X42139695Y-8281428D02*
X42139695Y-8738571D01*
X42139695Y-8509999D02*
X41339695Y-8509999D01*
X41339695Y-8509999D02*
X41453980Y-8586190D01*
X41453980Y-8586190D02*
X41530171Y-8662380D01*
X41530171Y-8662380D02*
X41568266Y-8738571D01*
X45916667Y-3373504D02*
X45878571Y-3411600D01*
X45878571Y-3411600D02*
X45764286Y-3449695D01*
X45764286Y-3449695D02*
X45688095Y-3449695D01*
X45688095Y-3449695D02*
X45573809Y-3411600D01*
X45573809Y-3411600D02*
X45497619Y-3335409D01*
X45497619Y-3335409D02*
X45459524Y-3259219D01*
X45459524Y-3259219D02*
X45421428Y-3106838D01*
X45421428Y-3106838D02*
X45421428Y-2992552D01*
X45421428Y-2992552D02*
X45459524Y-2840171D01*
X45459524Y-2840171D02*
X45497619Y-2763980D01*
X45497619Y-2763980D02*
X45573809Y-2687790D01*
X45573809Y-2687790D02*
X45688095Y-2649695D01*
X45688095Y-2649695D02*
X45764286Y-2649695D01*
X45764286Y-2649695D02*
X45878571Y-2687790D01*
X45878571Y-2687790D02*
X45916667Y-2725885D01*
X46678571Y-3449695D02*
X46221428Y-3449695D01*
X46450000Y-3449695D02*
X46450000Y-2649695D01*
X46450000Y-2649695D02*
X46373809Y-2763980D01*
X46373809Y-2763980D02*
X46297619Y-2840171D01*
X46297619Y-2840171D02*
X46221428Y-2878266D01*
D11*
%TO.C,G\u002A\u002A\u002A*%
G36*
X45696932Y-22525901D02*
G01*
X45756555Y-22540226D01*
X45802651Y-22567012D01*
X45840739Y-22608571D01*
X45847073Y-22617655D01*
X45869157Y-22670159D01*
X45877038Y-22734959D01*
X45870622Y-22802763D01*
X45849813Y-22864282D01*
X45849607Y-22864686D01*
X45831296Y-22891581D01*
X45798136Y-22931753D01*
X45754037Y-22980788D01*
X45702908Y-23034271D01*
X45672323Y-23064854D01*
X45623477Y-23113809D01*
X45583559Y-23155659D01*
X45555158Y-23187531D01*
X45540860Y-23206558D01*
X45540899Y-23210677D01*
X45560397Y-23209918D01*
X45600323Y-23209488D01*
X45655323Y-23209409D01*
X45720039Y-23209705D01*
X45737523Y-23209843D01*
X45914808Y-23211371D01*
X45914808Y-23262944D01*
X45914808Y-23314518D01*
X45639748Y-23314518D01*
X45558013Y-23314132D01*
X45485131Y-23313052D01*
X45424997Y-23311397D01*
X45381505Y-23309285D01*
X45358550Y-23306833D01*
X45356093Y-23305922D01*
X45349682Y-23287791D01*
X45347498Y-23262423D01*
X45351072Y-23245964D01*
X45363337Y-23224771D01*
X45386605Y-23196159D01*
X45423189Y-23157444D01*
X45475400Y-23105941D01*
X45515020Y-23067948D01*
X45592333Y-22993287D01*
X45652140Y-22932801D01*
X45696486Y-22883847D01*
X45727411Y-22843782D01*
X45746958Y-22809962D01*
X45757169Y-22779743D01*
X45760087Y-22750755D01*
X45749832Y-22698194D01*
X45718305Y-22658911D01*
X45664359Y-22631491D01*
X45663166Y-22631095D01*
X45599314Y-22622213D01*
X45528463Y-22636091D01*
X45460787Y-22666276D01*
X45424673Y-22684862D01*
X45402070Y-22691673D01*
X45384143Y-22687798D01*
X45367310Y-22677789D01*
X45340994Y-22653839D01*
X45338212Y-22629349D01*
X45359196Y-22600652D01*
X45372957Y-22588295D01*
X45422840Y-22555258D01*
X45482234Y-22534230D01*
X45556762Y-22523683D01*
X45618259Y-22521720D01*
X45696932Y-22525901D01*
G37*
G36*
X46398165Y-22525814D02*
G01*
X46473717Y-22560195D01*
X46538419Y-22616814D01*
X46590048Y-22694601D01*
X46596218Y-22707361D01*
X46611876Y-22744377D01*
X46621817Y-22778949D01*
X46627309Y-22818869D01*
X46629624Y-22871930D01*
X46630020Y-22914822D01*
X46629590Y-22977931D01*
X46626917Y-23023317D01*
X46620542Y-23059035D01*
X46609002Y-23093138D01*
X46590839Y-23133677D01*
X46590019Y-23135410D01*
X46542819Y-23213211D01*
X46484949Y-23267982D01*
X46414459Y-23300962D01*
X46329395Y-23313388D01*
X46309356Y-23313500D01*
X46262087Y-23310108D01*
X46218933Y-23302720D01*
X46204909Y-23298681D01*
X46138274Y-23261857D01*
X46082850Y-23205391D01*
X46039688Y-23133343D01*
X46009840Y-23049770D01*
X45994358Y-22958734D01*
X45994338Y-22929075D01*
X46115649Y-22929075D01*
X46124383Y-23012102D01*
X46138977Y-23067202D01*
X46171131Y-23130137D01*
X46216335Y-23176277D01*
X46270243Y-23203627D01*
X46328510Y-23210192D01*
X46386790Y-23193978D01*
X46399661Y-23186864D01*
X46449713Y-23141918D01*
X46486917Y-23078410D01*
X46509801Y-23000921D01*
X46516894Y-22914033D01*
X46510426Y-22842121D01*
X46489146Y-22760771D01*
X46454616Y-22699542D01*
X46404853Y-22655360D01*
X46381519Y-22642393D01*
X46323939Y-22623444D01*
X46271115Y-22627494D01*
X46217150Y-22655228D01*
X46207067Y-22662629D01*
X46167202Y-22707846D01*
X46138030Y-22771175D01*
X46120522Y-22846842D01*
X46115649Y-22929075D01*
X45994338Y-22929075D01*
X45994293Y-22864292D01*
X46010697Y-22770504D01*
X46044620Y-22681429D01*
X46044885Y-22680903D01*
X46077881Y-22633272D01*
X46124793Y-22586877D01*
X46176975Y-22549122D01*
X46223407Y-22528041D01*
X46313987Y-22514739D01*
X46398165Y-22525814D01*
G37*
G36*
X47049930Y-22520608D02*
G01*
X47124573Y-22541690D01*
X47184354Y-22579952D01*
X47227239Y-22634254D01*
X47251194Y-22703451D01*
X47255649Y-22754347D01*
X47247821Y-22804022D01*
X47223217Y-22858700D01*
X47180420Y-22920475D01*
X47118011Y-22991444D01*
X47048636Y-23060418D01*
X46999566Y-23107565D01*
X46957921Y-23148477D01*
X46926947Y-23179892D01*
X46909892Y-23198547D01*
X46907599Y-23202074D01*
X46918735Y-23207290D01*
X46943056Y-23208845D01*
X46969957Y-23208690D01*
X47015879Y-23208825D01*
X47074055Y-23209219D01*
X47129065Y-23209743D01*
X47197339Y-23210989D01*
X47243604Y-23214202D01*
X47271638Y-23221210D01*
X47285220Y-23233839D01*
X47288127Y-23253917D01*
X47284138Y-23283269D01*
X47283898Y-23284611D01*
X47281552Y-23293884D01*
X47276113Y-23300872D01*
X47264304Y-23305920D01*
X47242847Y-23309369D01*
X47208464Y-23311564D01*
X47157877Y-23312847D01*
X47087808Y-23313562D01*
X47002968Y-23314013D01*
X46921660Y-23313945D01*
X46849717Y-23313027D01*
X46790893Y-23311378D01*
X46748946Y-23309118D01*
X46727632Y-23306365D01*
X46725726Y-23305240D01*
X46723752Y-23279413D01*
X46726881Y-23255594D01*
X46737339Y-23230656D01*
X46757348Y-23201474D01*
X46789134Y-23164924D01*
X46834920Y-23117881D01*
X46896930Y-23057220D01*
X46913935Y-23040808D01*
X46989876Y-22966139D01*
X47047809Y-22905257D01*
X47089563Y-22855474D01*
X47116969Y-22814106D01*
X47131858Y-22778466D01*
X47136061Y-22745867D01*
X47132837Y-22719616D01*
X47111919Y-22679540D01*
X47072695Y-22649903D01*
X47020817Y-22631597D01*
X46961934Y-22625512D01*
X46901695Y-22632542D01*
X46845751Y-22653576D01*
X46820293Y-22670297D01*
X46792990Y-22688172D01*
X46772490Y-22695635D01*
X46772453Y-22695635D01*
X46750824Y-22687247D01*
X46725295Y-22667836D01*
X46705890Y-22646027D01*
X46701305Y-22634409D01*
X46712533Y-22614531D01*
X46742085Y-22590474D01*
X46783764Y-22566038D01*
X46831373Y-22545020D01*
X46864201Y-22534559D01*
X46962462Y-22517850D01*
X47049930Y-22520608D01*
G37*
G36*
X47798953Y-22524027D02*
G01*
X47851285Y-22530630D01*
X47885185Y-22539632D01*
X47913442Y-22554445D01*
X47922456Y-22570977D01*
X47919605Y-22591133D01*
X47906045Y-22629824D01*
X47887344Y-22645938D01*
X47858032Y-22642682D01*
X47842018Y-22636636D01*
X47775713Y-22620708D01*
X47703278Y-22622326D01*
X47633936Y-22640176D01*
X47576910Y-22672945D01*
X47574839Y-22674699D01*
X47535414Y-22721828D01*
X47505008Y-22782702D01*
X47489005Y-22845537D01*
X47487802Y-22865166D01*
X47487802Y-22919685D01*
X47512969Y-22892671D01*
X47556926Y-22861433D01*
X47619027Y-22843668D01*
X47701183Y-22838921D01*
X47733616Y-22840168D01*
X47789424Y-22844815D01*
X47828004Y-22852558D01*
X47857903Y-22865785D01*
X47880316Y-22881154D01*
X47932900Y-22935729D01*
X47964869Y-23000299D01*
X47975952Y-23069829D01*
X47965878Y-23139285D01*
X47934375Y-23203633D01*
X47899812Y-23242594D01*
X47833958Y-23285418D01*
X47754903Y-23309491D01*
X47667975Y-23313997D01*
X47578502Y-23298119D01*
X47565163Y-23293919D01*
X47500667Y-23259493D01*
X47445413Y-23204653D01*
X47403842Y-23134319D01*
X47391593Y-23101543D01*
X47390660Y-23097099D01*
X47518002Y-23097099D01*
X47536691Y-23145335D01*
X47572264Y-23185346D01*
X47621029Y-23210678D01*
X47672998Y-23217963D01*
X47730367Y-23213446D01*
X47780448Y-23198555D01*
X47793752Y-23191257D01*
X47831983Y-23153195D01*
X47852815Y-23104839D01*
X47855356Y-23053380D01*
X47838712Y-23006010D01*
X47819610Y-22982963D01*
X47760170Y-22943720D01*
X47696807Y-22927710D01*
X47634095Y-22934651D01*
X47576610Y-22964264D01*
X47540515Y-23000111D01*
X47518506Y-23046677D01*
X47518002Y-23097099D01*
X47390660Y-23097099D01*
X47377329Y-23033612D01*
X47371516Y-22953774D01*
X47373767Y-22870375D01*
X47383697Y-22791765D01*
X47400917Y-22726291D01*
X47409941Y-22705290D01*
X47460138Y-22629415D01*
X47524435Y-22574145D01*
X47604021Y-22538816D01*
X47700085Y-22522762D01*
X47738806Y-22521574D01*
X47798953Y-22524027D01*
G37*
G36*
X43154354Y-20972565D02*
G01*
X43212290Y-20979604D01*
X43220087Y-20981170D01*
X43265103Y-20993822D01*
X43313928Y-21011982D01*
X43360425Y-21032756D01*
X43398456Y-21053249D01*
X43421883Y-21070567D01*
X43426381Y-21078457D01*
X43420947Y-21097688D01*
X43406733Y-21131514D01*
X43386873Y-21173743D01*
X43364499Y-21218184D01*
X43342744Y-21258644D01*
X43324741Y-21288930D01*
X43313624Y-21302852D01*
X43312696Y-21303147D01*
X43295877Y-21297918D01*
X43264733Y-21284608D01*
X43245072Y-21275345D01*
X43186896Y-21255717D01*
X43114752Y-21243665D01*
X43039593Y-21240143D01*
X42972371Y-21246100D01*
X42954536Y-21250107D01*
X42873375Y-21284610D01*
X42805828Y-21338231D01*
X42754293Y-21406864D01*
X42721170Y-21486404D01*
X42708860Y-21572748D01*
X42717986Y-21654694D01*
X42749697Y-21743943D01*
X42798459Y-21814321D01*
X42865798Y-21867544D01*
X42935257Y-21899347D01*
X43020906Y-21917129D01*
X43116647Y-21915095D01*
X43216487Y-21893584D01*
X43251376Y-21881483D01*
X43290031Y-21867641D01*
X43317449Y-21859618D01*
X43326773Y-21858898D01*
X43333335Y-21871966D01*
X43348529Y-21902957D01*
X43369765Y-21946577D01*
X43384372Y-21976692D01*
X43438952Y-22089374D01*
X43374893Y-22121835D01*
X43279103Y-22158963D01*
X43169101Y-22182623D01*
X43053255Y-22191807D01*
X42939929Y-22185509D01*
X42900025Y-22178996D01*
X42830223Y-22158556D01*
X42752407Y-22124972D01*
X42677058Y-22083063D01*
X42645772Y-22062072D01*
X42566740Y-21990177D01*
X42501749Y-21900479D01*
X42452681Y-21797914D01*
X42421415Y-21687419D01*
X42409833Y-21573929D01*
X42418971Y-21466783D01*
X42452423Y-21355701D01*
X42507968Y-21252048D01*
X42582209Y-21159354D01*
X42671750Y-21081150D01*
X42773191Y-21020964D01*
X42883138Y-20982326D01*
X42885832Y-20981698D01*
X42939012Y-20973852D01*
X43007981Y-20969704D01*
X43083006Y-20969270D01*
X43154354Y-20972565D01*
G37*
G36*
X44201966Y-20970959D02*
G01*
X44265697Y-20975041D01*
X44313663Y-20981849D01*
X44355882Y-20993720D01*
X44402373Y-21012993D01*
X44422633Y-21022454D01*
X44529613Y-21086538D01*
X44617813Y-21167209D01*
X44686305Y-21262447D01*
X44734164Y-21370232D01*
X44760461Y-21488547D01*
X44764272Y-21615370D01*
X44748322Y-21732245D01*
X44711879Y-21845007D01*
X44654182Y-21946684D01*
X44578088Y-22034397D01*
X44486451Y-22105269D01*
X44382128Y-22156421D01*
X44305721Y-22178404D01*
X44215750Y-22189715D01*
X44116188Y-22189838D01*
X44020557Y-22179015D01*
X43990598Y-22172706D01*
X43876622Y-22132773D01*
X43777814Y-22072872D01*
X43695481Y-21994781D01*
X43630926Y-21900274D01*
X43585457Y-21791127D01*
X43560377Y-21669118D01*
X43557005Y-21606430D01*
X43840404Y-21606430D01*
X43855256Y-21697350D01*
X43858096Y-21706813D01*
X43894822Y-21784798D01*
X43949043Y-21848569D01*
X44016468Y-21896054D01*
X44092806Y-21925182D01*
X44173767Y-21933881D01*
X44255058Y-21920080D01*
X44280316Y-21910627D01*
X44349068Y-21867834D01*
X44406431Y-21805959D01*
X44449487Y-21730278D01*
X44475320Y-21646063D01*
X44481014Y-21558590D01*
X44480287Y-21549011D01*
X44461021Y-21454110D01*
X44423091Y-21372434D01*
X44368915Y-21306437D01*
X44300907Y-21258577D01*
X44221482Y-21231311D01*
X44162519Y-21225787D01*
X44084999Y-21232778D01*
X44019997Y-21255933D01*
X43966987Y-21290980D01*
X43910355Y-21351487D01*
X43869410Y-21427938D01*
X43845607Y-21514772D01*
X43840404Y-21606430D01*
X43557005Y-21606430D01*
X43555630Y-21580870D01*
X43565164Y-21454964D01*
X43593817Y-21344079D01*
X43642897Y-21244591D01*
X43707467Y-21159730D01*
X43796052Y-21079175D01*
X43897154Y-21020849D01*
X44011193Y-20984591D01*
X44138590Y-20970240D01*
X44201966Y-20970959D01*
G37*
G36*
X47682085Y-20971140D02*
G01*
X47747136Y-20979778D01*
X47790975Y-20991534D01*
X47840603Y-21008865D01*
X47890053Y-21029129D01*
X47933358Y-21049683D01*
X47964550Y-21067885D01*
X47977662Y-21081092D01*
X47977752Y-21081906D01*
X47971358Y-21098819D01*
X47954675Y-21130007D01*
X47931455Y-21169470D01*
X47905448Y-21211209D01*
X47880403Y-21249224D01*
X47860071Y-21277517D01*
X47848202Y-21290087D01*
X47847512Y-21290254D01*
X47831136Y-21284635D01*
X47800384Y-21270253D01*
X47777981Y-21258720D01*
X47700030Y-21227698D01*
X47622358Y-21215885D01*
X47552017Y-21224341D01*
X47551197Y-21224585D01*
X47504393Y-21248088D01*
X47480188Y-21283916D01*
X47477338Y-21325073D01*
X47483886Y-21347722D01*
X47499926Y-21368878D01*
X47528726Y-21390788D01*
X47573555Y-21415701D01*
X47637683Y-21445865D01*
X47680145Y-21464547D01*
X47777578Y-21511100D01*
X47853102Y-21557550D01*
X47910439Y-21606655D01*
X47953309Y-21661173D01*
X47959865Y-21671926D01*
X47986759Y-21738056D01*
X48000515Y-21816663D01*
X47999965Y-21897385D01*
X47990927Y-21947817D01*
X47964545Y-22005014D01*
X47919191Y-22061608D01*
X47861108Y-22111599D01*
X47796539Y-22148989D01*
X47771457Y-22158693D01*
X47703742Y-22174520D01*
X47620157Y-22184422D01*
X47530007Y-22188065D01*
X47442595Y-22185117D01*
X47367226Y-22175245D01*
X47358868Y-22173451D01*
X47307591Y-22159120D01*
X47253109Y-22139534D01*
X47200960Y-22117264D01*
X47156683Y-22094880D01*
X47125817Y-22074951D01*
X47113901Y-22060050D01*
X47113894Y-22059773D01*
X47120321Y-22042716D01*
X47137583Y-22009545D01*
X47162648Y-21965885D01*
X47178918Y-21939027D01*
X47243942Y-21833643D01*
X47317522Y-21870012D01*
X47399147Y-21905758D01*
X47471950Y-21926388D01*
X47545871Y-21934482D01*
X47567397Y-21934852D01*
X47615066Y-21932484D01*
X47648320Y-21923034D01*
X47678259Y-21903154D01*
X47681535Y-21900433D01*
X47708028Y-21874413D01*
X47717427Y-21850557D01*
X47715475Y-21822497D01*
X47708160Y-21795204D01*
X47693613Y-21771068D01*
X47668450Y-21747450D01*
X47629284Y-21721710D01*
X47572732Y-21691208D01*
X47503340Y-21657106D01*
X47420356Y-21615906D01*
X47357387Y-21580868D01*
X47310331Y-21549018D01*
X47275090Y-21517380D01*
X47247563Y-21482978D01*
X47234216Y-21461784D01*
X47206116Y-21392881D01*
X47193081Y-21313739D01*
X47196035Y-21234883D01*
X47209585Y-21181509D01*
X47243543Y-21122670D01*
X47296642Y-21066750D01*
X47362439Y-21019924D01*
X47395970Y-21002790D01*
X47451550Y-20985607D01*
X47523610Y-20974221D01*
X47603379Y-20969207D01*
X47682085Y-20971140D01*
G37*
G36*
X45409886Y-21228662D02*
G01*
X45455813Y-21317251D01*
X45505131Y-21412427D01*
X45553977Y-21506734D01*
X45598489Y-21592713D01*
X45633317Y-21660032D01*
X45727853Y-21842856D01*
X45734300Y-21415058D01*
X45740747Y-20987259D01*
X45873307Y-20987259D01*
X46005867Y-20987259D01*
X46005867Y-21578454D01*
X46005867Y-22169650D01*
X45821738Y-22167687D01*
X45755357Y-22166385D01*
X45698482Y-22164144D01*
X45655945Y-22161241D01*
X45632576Y-22157954D01*
X45629755Y-22156695D01*
X45622313Y-22143489D01*
X45604606Y-22109896D01*
X45577987Y-22058552D01*
X45543812Y-21992088D01*
X45503433Y-21913140D01*
X45458207Y-21824342D01*
X45410562Y-21730450D01*
X45199224Y-21313234D01*
X45192777Y-21741174D01*
X45186330Y-22169114D01*
X45069259Y-22171283D01*
X45014630Y-22171807D01*
X44968227Y-22171364D01*
X44937275Y-22170057D01*
X44930525Y-22169258D01*
X44925422Y-22166710D01*
X44921214Y-22159760D01*
X44917833Y-22146216D01*
X44915211Y-22123882D01*
X44913282Y-22090567D01*
X44911976Y-22044076D01*
X44911227Y-21982215D01*
X44910967Y-21902791D01*
X44911127Y-21803610D01*
X44911641Y-21682478D01*
X44912216Y-21576162D01*
X44915569Y-20987259D01*
X45098280Y-20983688D01*
X45280991Y-20980117D01*
X45409886Y-21228662D01*
G37*
G36*
X46965198Y-21106523D02*
G01*
X46967283Y-21225787D01*
X46724700Y-21225787D01*
X46482117Y-21225787D01*
X46482117Y-21341828D01*
X46482117Y-21457868D01*
X46720645Y-21457868D01*
X46959173Y-21457868D01*
X46959188Y-21577132D01*
X46959203Y-21696396D01*
X46720660Y-21692622D01*
X46482117Y-21688848D01*
X46482117Y-21811886D01*
X46482117Y-21934924D01*
X46723868Y-21934922D01*
X46965620Y-21934920D01*
X46964616Y-22051719D01*
X46963613Y-22168519D01*
X46587488Y-22170985D01*
X46491958Y-22171400D01*
X46405320Y-22171368D01*
X46330778Y-22170925D01*
X46271533Y-22170103D01*
X46230789Y-22168937D01*
X46211748Y-22167460D01*
X46210743Y-22167005D01*
X46210628Y-22153186D01*
X46210544Y-22116176D01*
X46210492Y-22058573D01*
X46210471Y-21982973D01*
X46210483Y-21891974D01*
X46210526Y-21788170D01*
X46210603Y-21674161D01*
X46210691Y-21573909D01*
X46211259Y-20987259D01*
X46587185Y-20987259D01*
X46963112Y-20987259D01*
X46965198Y-21106523D01*
G37*
G36*
X48303310Y-20980809D02*
G01*
X48441914Y-20980812D01*
X48441914Y-21573079D01*
X48441914Y-22165346D01*
X48306753Y-22169399D01*
X48171592Y-22173452D01*
X48168149Y-21577129D01*
X48164706Y-20980805D01*
X48303310Y-20980809D01*
G37*
G36*
X49396026Y-21103105D02*
G01*
X49396026Y-21225787D01*
X49157498Y-21225787D01*
X48918970Y-21225787D01*
X48918970Y-21341828D01*
X48918970Y-21457868D01*
X49157498Y-21457868D01*
X49396026Y-21457868D01*
X49396026Y-21573909D01*
X49396026Y-21689949D01*
X49157498Y-21689949D01*
X48918970Y-21689949D01*
X48918970Y-21812437D01*
X48918970Y-21934924D01*
X49157498Y-21934924D01*
X49396026Y-21934924D01*
X49396026Y-22050584D01*
X49396026Y-22166244D01*
X49020467Y-22169848D01*
X48900257Y-22170558D01*
X48801674Y-22170194D01*
X48725629Y-22168778D01*
X48673032Y-22166333D01*
X48644793Y-22162880D01*
X48639973Y-22160558D01*
X48639027Y-22145371D01*
X48638286Y-22107047D01*
X48637759Y-22048237D01*
X48637452Y-21971591D01*
X48637372Y-21879758D01*
X48637527Y-21775389D01*
X48637923Y-21661134D01*
X48638400Y-21567462D01*
X48641762Y-20987259D01*
X49018894Y-20983841D01*
X49396026Y-20980423D01*
X49396026Y-21103105D01*
G37*
G36*
X50350152Y-21106328D02*
G01*
X50350167Y-21232234D01*
X50111624Y-21228460D01*
X49873082Y-21224686D01*
X49873082Y-21341277D01*
X49873082Y-21457868D01*
X50111610Y-21457868D01*
X50350137Y-21457868D01*
X50350137Y-21573909D01*
X50350137Y-21689949D01*
X50111610Y-21689949D01*
X49873082Y-21689949D01*
X49873082Y-21812437D01*
X49873082Y-21934924D01*
X50111610Y-21934924D01*
X50350137Y-21934924D01*
X50350137Y-22057411D01*
X50349198Y-22109620D01*
X50346673Y-22150082D01*
X50343001Y-22173380D01*
X50340467Y-22176881D01*
X50325562Y-22175986D01*
X50288201Y-22174942D01*
X50231718Y-22173808D01*
X50159443Y-22172642D01*
X50074708Y-22171501D01*
X49980845Y-22170445D01*
X49959982Y-22170236D01*
X49589167Y-22166609D01*
X49592520Y-21576934D01*
X49595874Y-20987259D01*
X49973006Y-20983841D01*
X50350137Y-20980423D01*
X50350152Y-21106328D01*
G37*
G36*
X47739022Y-19549708D02*
G01*
X47834361Y-19549991D01*
X47909171Y-19550635D01*
X47966081Y-19551780D01*
X48007719Y-19553568D01*
X48036715Y-19556139D01*
X48055696Y-19559635D01*
X48067293Y-19564195D01*
X48074133Y-19569960D01*
X48077075Y-19574100D01*
X48089605Y-19595383D01*
X48111157Y-19633180D01*
X48138292Y-19681428D01*
X48157782Y-19716400D01*
X48179825Y-19754734D01*
X48196568Y-19784620D01*
X48206572Y-19809205D01*
X48208399Y-19831634D01*
X48200608Y-19855052D01*
X48181761Y-19882604D01*
X48150419Y-19917437D01*
X48105142Y-19962694D01*
X48044491Y-20021523D01*
X47997092Y-20067601D01*
X47816584Y-20243882D01*
X47643564Y-20142756D01*
X47470545Y-20041631D01*
X47334123Y-20109942D01*
X47269208Y-20140981D01*
X47201853Y-20170751D01*
X47141343Y-20195261D01*
X47107447Y-20207341D01*
X47052337Y-20225919D01*
X47016925Y-20241173D01*
X46996106Y-20256828D01*
X46984775Y-20276611D01*
X46978358Y-20301576D01*
X46970785Y-20333488D01*
X46958199Y-20380905D01*
X46943053Y-20434651D01*
X46939820Y-20445736D01*
X46923434Y-20502288D01*
X46907966Y-20556913D01*
X46896410Y-20599025D01*
X46895180Y-20603680D01*
X46880819Y-20658477D01*
X46593312Y-20658477D01*
X46305806Y-20658477D01*
X46258581Y-20479065D01*
X46241586Y-20412775D01*
X46227307Y-20353786D01*
X46216955Y-20307360D01*
X46211742Y-20278758D01*
X46211356Y-20274013D01*
X46219463Y-20248764D01*
X46239770Y-20216341D01*
X46248750Y-20205228D01*
X46273249Y-20176723D01*
X46308740Y-20135134D01*
X46349584Y-20087078D01*
X46374461Y-20057719D01*
X46423562Y-19999764D01*
X46480078Y-19933163D01*
X46534691Y-19868890D01*
X46555979Y-19843869D01*
X46649181Y-19734381D01*
X46742206Y-19717756D01*
X46880276Y-19684346D01*
X47013438Y-19635620D01*
X47096979Y-19594866D01*
X47179248Y-19549645D01*
X47620526Y-19549645D01*
X47739022Y-19549708D01*
G37*
G36*
X45487923Y-17809323D02*
G01*
X45573156Y-17810335D01*
X45636807Y-17812295D01*
X45680975Y-17815427D01*
X45707759Y-17819956D01*
X45719259Y-17826105D01*
X45717574Y-17834099D01*
X45705290Y-17843852D01*
X45673540Y-17873120D01*
X45636187Y-17921767D01*
X45596061Y-17984802D01*
X45555991Y-18057236D01*
X45518808Y-18134078D01*
X45487342Y-18210337D01*
X45471839Y-18255480D01*
X45456809Y-18312283D01*
X45442879Y-18380321D01*
X45430874Y-18453360D01*
X45421615Y-18525167D01*
X45415925Y-18589508D01*
X45414628Y-18640149D01*
X45417473Y-18667298D01*
X45418248Y-18683633D01*
X45411044Y-18703608D01*
X45393442Y-18730968D01*
X45363020Y-18769462D01*
X45317357Y-18822835D01*
X45315888Y-18824520D01*
X45206362Y-18950102D01*
X45340780Y-18953755D01*
X45475199Y-18957408D01*
X45531878Y-19076242D01*
X45616946Y-19226728D01*
X45720314Y-19359373D01*
X45842634Y-19474839D01*
X45984558Y-19573787D01*
X46068671Y-19620124D01*
X46107911Y-19638303D01*
X46139970Y-19650163D01*
X46152907Y-19652792D01*
X46166546Y-19659543D01*
X46171834Y-19681638D01*
X46168767Y-19721846D01*
X46157345Y-19782930D01*
X46152800Y-19803489D01*
X46139561Y-19860355D01*
X46123854Y-19925298D01*
X46106936Y-19993415D01*
X46090063Y-20059804D01*
X46074493Y-20119562D01*
X46061484Y-20167787D01*
X46052291Y-20199577D01*
X46048626Y-20209736D01*
X46033799Y-20210834D01*
X46000483Y-20202187D01*
X45953269Y-20185548D01*
X45896748Y-20162673D01*
X45835511Y-20135316D01*
X45774148Y-20105233D01*
X45771011Y-20103613D01*
X45724273Y-20080342D01*
X45685192Y-20062615D01*
X45660144Y-20053261D01*
X45655782Y-20052487D01*
X45638607Y-20058678D01*
X45604403Y-20075498D01*
X45558259Y-20100319D01*
X45509477Y-20128054D01*
X45455571Y-20158867D01*
X45407740Y-20185141D01*
X45371558Y-20203880D01*
X45353709Y-20211782D01*
X45341647Y-20211336D01*
X45323967Y-20202424D01*
X45298388Y-20183108D01*
X45262624Y-20151448D01*
X45214392Y-20105506D01*
X45151408Y-20043342D01*
X45129450Y-20021396D01*
X45064329Y-19955088D01*
X45010859Y-19898425D01*
X44970788Y-19853378D01*
X44945865Y-19821918D01*
X44937837Y-19806018D01*
X44937964Y-19805511D01*
X44946924Y-19788280D01*
X44966460Y-19753877D01*
X44993761Y-19707166D01*
X45026013Y-19653012D01*
X45028525Y-19648833D01*
X45112336Y-19509494D01*
X45037647Y-19358732D01*
X45004528Y-19287937D01*
X44971989Y-19211571D01*
X44944110Y-19139579D01*
X44927200Y-19089503D01*
X44909547Y-19033501D01*
X44895672Y-18997606D01*
X44882917Y-18976952D01*
X44868626Y-18966674D01*
X44858378Y-18963503D01*
X44832944Y-18957095D01*
X44789137Y-18945449D01*
X44733411Y-18930300D01*
X44680264Y-18915624D01*
X44535214Y-18875278D01*
X44535214Y-18580685D01*
X44535273Y-18486307D01*
X44535645Y-18414603D01*
X44536619Y-18362457D01*
X44538486Y-18326754D01*
X44541535Y-18304382D01*
X44546057Y-18292225D01*
X44552342Y-18287169D01*
X44560679Y-18286101D01*
X44562653Y-18286091D01*
X44585471Y-18282874D01*
X44627156Y-18274118D01*
X44681724Y-18261173D01*
X44741622Y-18245801D01*
X44893152Y-18205511D01*
X44929060Y-18087857D01*
X44945767Y-18034528D01*
X44960731Y-17989287D01*
X44971729Y-17958738D01*
X44975138Y-17950863D01*
X44985880Y-17928091D01*
X45001822Y-17891806D01*
X45010957Y-17870279D01*
X45036606Y-17809036D01*
X45379006Y-17809036D01*
X45487923Y-17809323D01*
G37*
G36*
X46955421Y-17092373D02*
G01*
X46954417Y-17096675D01*
X46938249Y-17155787D01*
X46919375Y-17230528D01*
X46896746Y-17325093D01*
X46889112Y-17357767D01*
X46874900Y-17418449D01*
X46856570Y-17496101D01*
X46836043Y-17582619D01*
X46815237Y-17669904D01*
X46805082Y-17712335D01*
X46786685Y-17789337D01*
X46769308Y-17862519D01*
X46754310Y-17926134D01*
X46743046Y-17974435D01*
X46738125Y-17995990D01*
X46726840Y-18044517D01*
X46712620Y-18103091D01*
X46702064Y-18145171D01*
X46691757Y-18190155D01*
X46685726Y-18225911D01*
X46685245Y-18244357D01*
X46696438Y-18249115D01*
X46727367Y-18252972D01*
X46779275Y-18255984D01*
X46853410Y-18258204D01*
X46951018Y-18259687D01*
X47053479Y-18260408D01*
X47156244Y-18261040D01*
X47258155Y-18262004D01*
X47354131Y-18263226D01*
X47439093Y-18264635D01*
X47507959Y-18266156D01*
X47552269Y-18267574D01*
X47609104Y-18269885D01*
X47656151Y-18271734D01*
X47687574Y-18272895D01*
X47697320Y-18273179D01*
X47706661Y-18281122D01*
X47698036Y-18302008D01*
X47684427Y-18319309D01*
X47664719Y-18341765D01*
X47633104Y-18378270D01*
X47594382Y-18423233D01*
X47553354Y-18471060D01*
X47514819Y-18516158D01*
X47483579Y-18552935D01*
X47468435Y-18570957D01*
X47440893Y-18603910D01*
X47402378Y-18649788D01*
X47355319Y-18705715D01*
X47302145Y-18768818D01*
X47245285Y-18836220D01*
X47187168Y-18905048D01*
X47130223Y-18972425D01*
X47076879Y-19035478D01*
X47029566Y-19091331D01*
X46990712Y-19137109D01*
X46962746Y-19169937D01*
X46948098Y-19186941D01*
X46946558Y-19188630D01*
X46935309Y-19201192D01*
X46912644Y-19227907D01*
X46883658Y-19262767D01*
X46827838Y-19330457D01*
X47466764Y-19330457D01*
X48105691Y-19330457D01*
X48193110Y-19440051D01*
X48280529Y-19549645D01*
X48424291Y-19549645D01*
X48486900Y-19549384D01*
X48528432Y-19548002D01*
X48553595Y-19544598D01*
X48567095Y-19538271D01*
X48573642Y-19528122D01*
X48575971Y-19520635D01*
X48600635Y-19473887D01*
X48644363Y-19431055D01*
X48700435Y-19396544D01*
X48762133Y-19374758D01*
X48806666Y-19369420D01*
X48866403Y-19379698D01*
X48925846Y-19407831D01*
X48978046Y-19448769D01*
X49016054Y-19497464D01*
X49030083Y-19531768D01*
X49035962Y-19583971D01*
X49032136Y-19644001D01*
X49020142Y-19701399D01*
X49001521Y-19745706D01*
X48997804Y-19751188D01*
X48944375Y-19804515D01*
X48878938Y-19835469D01*
X48800295Y-19844570D01*
X48784055Y-19843890D01*
X48705440Y-19828474D01*
X48642882Y-19793750D01*
X48597642Y-19740531D01*
X48585129Y-19715334D01*
X48564401Y-19665948D01*
X48387697Y-19665817D01*
X48210992Y-19665685D01*
X48174019Y-19617115D01*
X48680770Y-19617115D01*
X48694593Y-19660068D01*
X48727491Y-19704289D01*
X48770748Y-19727276D01*
X48818818Y-19728067D01*
X48866154Y-19705701D01*
X48881282Y-19692464D01*
X48907187Y-19658242D01*
X48918832Y-19625309D01*
X48918970Y-19622157D01*
X48908848Y-19568975D01*
X48882011Y-19527677D01*
X48843749Y-19500721D01*
X48799354Y-19490567D01*
X48754118Y-19499673D01*
X48715777Y-19527750D01*
X48686119Y-19572143D01*
X48680770Y-19617115D01*
X48174019Y-19617115D01*
X48132473Y-19562538D01*
X48053953Y-19459391D01*
X47432426Y-19457741D01*
X47279017Y-19457303D01*
X47149336Y-19456927D01*
X47041327Y-19456699D01*
X46952929Y-19456706D01*
X46882086Y-19457033D01*
X46826739Y-19457767D01*
X46784831Y-19458994D01*
X46754302Y-19460800D01*
X46733095Y-19463271D01*
X46719152Y-19466494D01*
X46710415Y-19470554D01*
X46704826Y-19475538D01*
X46700326Y-19481532D01*
X46694858Y-19488621D01*
X46673203Y-19513943D01*
X46642066Y-19550719D01*
X46611051Y-19587580D01*
X46572724Y-19633027D01*
X46527936Y-19685748D01*
X46480955Y-19740765D01*
X46436044Y-19793098D01*
X46397472Y-19837769D01*
X46369502Y-19869801D01*
X46361991Y-19878235D01*
X46340390Y-19903890D01*
X46312003Y-19939691D01*
X46297524Y-19958612D01*
X46265823Y-19996904D01*
X46245633Y-20012197D01*
X46236670Y-20004424D01*
X46238653Y-19973520D01*
X46244433Y-19946117D01*
X46251770Y-19915618D01*
X46264196Y-19864120D01*
X46280731Y-19795684D01*
X46300393Y-19714374D01*
X46322198Y-19624251D01*
X46344942Y-19530305D01*
X46382125Y-19376627D01*
X46413588Y-19246291D01*
X46439733Y-19137589D01*
X46460964Y-19048815D01*
X46477683Y-18978260D01*
X46490293Y-18924217D01*
X46499199Y-18884980D01*
X46504802Y-18858840D01*
X46507505Y-18844091D01*
X46507904Y-18840066D01*
X46495222Y-18836770D01*
X46458016Y-18833930D01*
X46397545Y-18831577D01*
X46315068Y-18829742D01*
X46211843Y-18828456D01*
X46089131Y-18827749D01*
X45998615Y-18827614D01*
X45872689Y-18827319D01*
X45761320Y-18826462D01*
X45666412Y-18825088D01*
X45589868Y-18823242D01*
X45533592Y-18820970D01*
X45499488Y-18818315D01*
X45489325Y-18815642D01*
X45497355Y-18797009D01*
X45505717Y-18786632D01*
X45524450Y-18765156D01*
X45548704Y-18735039D01*
X45551899Y-18730914D01*
X45578759Y-18697957D01*
X45612849Y-18658562D01*
X45628984Y-18640660D01*
X45659814Y-18605808D01*
X45699301Y-18559477D01*
X45740054Y-18510369D01*
X45749448Y-18498833D01*
X45785264Y-18455017D01*
X45817510Y-18416209D01*
X45840877Y-18388777D01*
X45846203Y-18382792D01*
X45862637Y-18363858D01*
X45891816Y-18329296D01*
X45930132Y-18283417D01*
X45973977Y-18230530D01*
X45991963Y-18208731D01*
X46035284Y-18156291D01*
X46072823Y-18111108D01*
X46101521Y-18076845D01*
X46118319Y-18057161D01*
X46121210Y-18054010D01*
X46131488Y-18042450D01*
X46155443Y-18014552D01*
X46190167Y-17973728D01*
X46232757Y-17923389D01*
X46266659Y-17883173D01*
X46405034Y-17718782D01*
X45743761Y-17718782D01*
X45082489Y-17718782D01*
X44999029Y-17827961D01*
X44915569Y-17937141D01*
X44738458Y-17937555D01*
X44561346Y-17937970D01*
X44543435Y-17980838D01*
X44506159Y-18039105D01*
X44452724Y-18081979D01*
X44388599Y-18108107D01*
X44319253Y-18116136D01*
X44250155Y-18104716D01*
X44186774Y-18072493D01*
X44183275Y-18069871D01*
X44133309Y-18016652D01*
X44102870Y-17952081D01*
X44092374Y-17884440D01*
X44206188Y-17884440D01*
X44217834Y-17914302D01*
X44221716Y-17922333D01*
X44253017Y-17962634D01*
X44295077Y-17986097D01*
X44341343Y-17992253D01*
X44385261Y-17980637D01*
X44420275Y-17950783D01*
X44428653Y-17937059D01*
X44444379Y-17882995D01*
X44434697Y-17833117D01*
X44407271Y-17795150D01*
X44362102Y-17765376D01*
X44313798Y-17758782D01*
X44268006Y-17774302D01*
X44230375Y-17810871D01*
X44219114Y-17830642D01*
X44206740Y-17861000D01*
X44206188Y-17884440D01*
X44092374Y-17884440D01*
X44091937Y-17881621D01*
X44100491Y-17810740D01*
X44128511Y-17744904D01*
X44175978Y-17689579D01*
X44184679Y-17682597D01*
X44211747Y-17664317D01*
X44238707Y-17653819D01*
X44274113Y-17649027D01*
X44326520Y-17647868D01*
X44327916Y-17647868D01*
X44380445Y-17648913D01*
X44415897Y-17653502D01*
X44442943Y-17663814D01*
X44470257Y-17682032D01*
X44473450Y-17684458D01*
X44509181Y-17719253D01*
X44538834Y-17760490D01*
X44544363Y-17771156D01*
X44567447Y-17821264D01*
X44692103Y-17821596D01*
X44748272Y-17820936D01*
X44796142Y-17818888D01*
X44828842Y-17815819D01*
X44837819Y-17813848D01*
X44854335Y-17800540D01*
X44881579Y-17771344D01*
X44915101Y-17731218D01*
X44936153Y-17704254D01*
X44939816Y-17699442D01*
X46430544Y-17699442D01*
X46436990Y-17705888D01*
X46443437Y-17699442D01*
X46436990Y-17692995D01*
X46430544Y-17699442D01*
X44939816Y-17699442D01*
X45013428Y-17602741D01*
X45758889Y-17602741D01*
X46504350Y-17602741D01*
X46596959Y-17489924D01*
X46684172Y-17384067D01*
X46757233Y-17296212D01*
X46815658Y-17226934D01*
X46858963Y-17176807D01*
X46883415Y-17149802D01*
X46907788Y-17121045D01*
X46923685Y-17096870D01*
X46924914Y-17094081D01*
X46938199Y-17076757D01*
X46951580Y-17076470D01*
X46955421Y-17092373D01*
G37*
G36*
X47815728Y-16953932D02*
G01*
X47843819Y-16978430D01*
X47884322Y-17016021D01*
X47934404Y-17064058D01*
X47991235Y-17119892D01*
X48015245Y-17143837D01*
X48213595Y-17342497D01*
X48186426Y-17385588D01*
X48162090Y-17425967D01*
X48136341Y-17471207D01*
X48131402Y-17480254D01*
X48109117Y-17519948D01*
X48080414Y-17569040D01*
X48058794Y-17604933D01*
X48032273Y-17653533D01*
X48022456Y-17691003D01*
X48029295Y-17725822D01*
X48052744Y-17766467D01*
X48057860Y-17773829D01*
X48082182Y-17816234D01*
X48112037Y-17881742D01*
X48146622Y-17968457D01*
X48184738Y-18073350D01*
X48220813Y-18176498D01*
X48379714Y-18223517D01*
X48443237Y-18242081D01*
X48500700Y-18258451D01*
X48546019Y-18270921D01*
X48573110Y-18277785D01*
X48574072Y-18277992D01*
X48609528Y-18285447D01*
X48609528Y-18574284D01*
X48609528Y-18863122D01*
X48416144Y-18913058D01*
X48349736Y-18931026D01*
X48293164Y-18947893D01*
X48250700Y-18962263D01*
X48226613Y-18972736D01*
X48222743Y-18976401D01*
X48219082Y-18993730D01*
X48209228Y-19029708D01*
X48194849Y-19078426D01*
X48183592Y-19115005D01*
X48144457Y-19240203D01*
X47824541Y-19240203D01*
X47504626Y-19240203D01*
X47570479Y-19108046D01*
X47630289Y-18972214D01*
X47669667Y-18843846D01*
X47690159Y-18716922D01*
X47694097Y-18627278D01*
X47694403Y-18569230D01*
X47696522Y-18529948D01*
X47702258Y-18502412D01*
X47713413Y-18479601D01*
X47731792Y-18454494D01*
X47741646Y-18442140D01*
X47771276Y-18405854D01*
X47797229Y-18375253D01*
X47809336Y-18361810D01*
X47834546Y-18333803D01*
X47848853Y-18316683D01*
X47867215Y-18294242D01*
X47895558Y-18260070D01*
X47922990Y-18227241D01*
X47950895Y-18192726D01*
X47970622Y-18165954D01*
X47977752Y-18153104D01*
X47965621Y-18149946D01*
X47932277Y-18147271D01*
X47882293Y-18145302D01*
X47820240Y-18144261D01*
X47794021Y-18144155D01*
X47610290Y-18144046D01*
X47565163Y-18058996D01*
X47476784Y-17917236D01*
X47370789Y-17792815D01*
X47245666Y-17684259D01*
X47099900Y-17590096D01*
X47062320Y-17569811D01*
X47024395Y-17549901D01*
X46996706Y-17535134D01*
X46986215Y-17529278D01*
X46986428Y-17515993D01*
X46991606Y-17483856D01*
X47000699Y-17439091D01*
X47003692Y-17425637D01*
X47017644Y-17364627D01*
X47033624Y-17295713D01*
X47050485Y-17223729D01*
X47067081Y-17153507D01*
X47082265Y-17089882D01*
X47094890Y-17037687D01*
X47103810Y-17001755D01*
X47107585Y-16987720D01*
X47119244Y-16982228D01*
X47148604Y-16988490D01*
X47193804Y-17005242D01*
X47268112Y-17037006D01*
X47334407Y-17068321D01*
X47387558Y-17096600D01*
X47422435Y-17119256D01*
X47426228Y-17122408D01*
X47444154Y-17134256D01*
X47462392Y-17131471D01*
X47484249Y-17118501D01*
X47518180Y-17097476D01*
X47563964Y-17070766D01*
X47616528Y-17041130D01*
X47670799Y-17011327D01*
X47721706Y-16984116D01*
X47764177Y-16962257D01*
X47793139Y-16948508D01*
X47802881Y-16945178D01*
X47815728Y-16953932D01*
G37*
G36*
X46925093Y-16677640D02*
G01*
X46939407Y-16735555D01*
X46950768Y-16786718D01*
X46957751Y-16824400D01*
X46959272Y-16839060D01*
X46951113Y-16856722D01*
X46928399Y-16890597D01*
X46893684Y-16937606D01*
X46849526Y-16994670D01*
X46798479Y-17058710D01*
X46743100Y-17126648D01*
X46685944Y-17195405D01*
X46629567Y-17261902D01*
X46576526Y-17323060D01*
X46529376Y-17375802D01*
X46490672Y-17417047D01*
X46462971Y-17443718D01*
X46449884Y-17452654D01*
X46401876Y-17463454D01*
X46358097Y-17472460D01*
X46315661Y-17479835D01*
X46271685Y-17485741D01*
X46223286Y-17490339D01*
X46167581Y-17493794D01*
X46101684Y-17496266D01*
X46022714Y-17497919D01*
X45927786Y-17498915D01*
X45814016Y-17499415D01*
X45678522Y-17499583D01*
X45616248Y-17499594D01*
X45015283Y-17499594D01*
X44968649Y-17421310D01*
X44945427Y-17380273D01*
X44928723Y-17346841D01*
X44922026Y-17328018D01*
X44922016Y-17327676D01*
X44930776Y-17314428D01*
X44955290Y-17285974D01*
X44992903Y-17245166D01*
X45040963Y-17194860D01*
X45096818Y-17137908D01*
X45120513Y-17114140D01*
X45319010Y-16915953D01*
X45388051Y-16956777D01*
X45427926Y-16980334D01*
X45460776Y-16999702D01*
X45476432Y-17008897D01*
X45496326Y-17020696D01*
X45531404Y-17041659D01*
X45574753Y-17067654D01*
X45583426Y-17072864D01*
X45671080Y-17125534D01*
X45802614Y-17061723D01*
X45939525Y-17001126D01*
X46072984Y-16954918D01*
X46154462Y-16932674D01*
X46207163Y-16919526D01*
X46248608Y-16778508D01*
X46266202Y-16716833D01*
X46281570Y-16659645D01*
X46292817Y-16614194D01*
X46297518Y-16591486D01*
X46304984Y-16545482D01*
X46597900Y-16545482D01*
X46890815Y-16545482D01*
X46925093Y-16677640D01*
G37*
D12*
%TO.C,R3*%
X38300000Y-8100000D02*
X38300000Y-14640000D01*
X37970000Y-8100000D02*
X38300000Y-8100000D01*
X35890000Y-8100000D02*
X35560000Y-8100000D01*
X35560000Y-8100000D02*
X35560000Y-14640000D01*
X38300000Y-14640000D02*
X37970000Y-14640000D01*
X35560000Y-14640000D02*
X35890000Y-14640000D01*
%TO.C,R2*%
X13230000Y-14800000D02*
X13230000Y-8260000D01*
X13560000Y-14800000D02*
X13230000Y-14800000D01*
X15640000Y-14800000D02*
X15970000Y-14800000D01*
X15970000Y-14800000D02*
X15970000Y-8260000D01*
X13230000Y-8260000D02*
X13560000Y-8260000D01*
X15970000Y-8260000D02*
X15640000Y-8260000D01*
%TO.C,R1*%
X30020000Y-14800000D02*
X30020000Y-8260000D01*
X30350000Y-14800000D02*
X30020000Y-14800000D01*
X32430000Y-14800000D02*
X32760000Y-14800000D01*
X32760000Y-14800000D02*
X32760000Y-8260000D01*
X30020000Y-8260000D02*
X30350000Y-8260000D01*
X32760000Y-8260000D02*
X32430000Y-8260000D01*
%TO.C,U1*%
X19760000Y-6360000D02*
X19760000Y-16640000D01*
X19760000Y-16640000D02*
X25060000Y-16640000D01*
X21410000Y-6360000D02*
X19760000Y-6360000D01*
X25060000Y-6360000D02*
X23410000Y-6360000D01*
X25060000Y-16640000D02*
X25060000Y-6360000D01*
X23410000Y-6360000D02*
G75*
G02*
X21410000Y-6360000I-1000000J0D01*
G01*
%TO.C,J2*%
X60445000Y-16830000D02*
X61185000Y-16830000D01*
X61185000Y-16830000D02*
X61185000Y-16330000D01*
X51024000Y-16590000D02*
X60945000Y-16590000D01*
X51024000Y-16590000D02*
X51024000Y-6470000D01*
X53984000Y-16590000D02*
X53984000Y-6470000D01*
X58885000Y-16590000D02*
X58885000Y-6470000D01*
X60385000Y-16590000D02*
X60385000Y-6470000D01*
X60945000Y-16590000D02*
X60945000Y-6470000D01*
X57308000Y-10257000D02*
X57354000Y-10304000D01*
X57524000Y-10064000D02*
X57559000Y-10099000D01*
X55010000Y-7960000D02*
X55046000Y-7995000D01*
X55216000Y-7755000D02*
X55262000Y-7802000D01*
X51024000Y-6470000D02*
X60945000Y-6470000D01*
X56968042Y-15565427D02*
G75*
G02*
X55601000Y-15565000I-683041J1535420D01*
G01*
X54749573Y-14713042D02*
G75*
G02*
X54750000Y-13346000I1535420J683041D01*
G01*
X57965253Y-14001195D02*
G75*
G02*
X57820000Y-14714000I-1680254J-28806D01*
G01*
X57819756Y-13346682D02*
G75*
G02*
X57965000Y-14030000I-1534756J-683318D01*
G01*
X55601958Y-12494573D02*
G75*
G02*
X56969000Y-12495000I683042J-1535427D01*
G01*
X57965000Y-9030000D02*
G75*
G02*
X54605000Y-9030000I-1680000J0D01*
G01*
X54605000Y-9030000D02*
G75*
G02*
X57965000Y-9030000I1680000J0D01*
G01*
%TO.C,J1*%
X2835000Y-6230000D02*
X2095000Y-6230000D01*
X2095000Y-6230000D02*
X2095000Y-6730000D01*
X12256000Y-6470000D02*
X2335000Y-6470000D01*
X12256000Y-6470000D02*
X12256000Y-16590000D01*
X9296000Y-6470000D02*
X9296000Y-16590000D01*
X4395000Y-6470000D02*
X4395000Y-16590000D01*
X2895000Y-6470000D02*
X2895000Y-16590000D01*
X2335000Y-6470000D02*
X2335000Y-16590000D01*
X5972000Y-12803000D02*
X5926000Y-12756000D01*
X5756000Y-12996000D02*
X5721000Y-12961000D01*
X8270000Y-15100000D02*
X8234000Y-15065000D01*
X8064000Y-15305000D02*
X8018000Y-15258000D01*
X12256000Y-16590000D02*
X2335000Y-16590000D01*
X6311958Y-7494573D02*
G75*
G02*
X7679000Y-7495000I683041J-1535420D01*
G01*
X8530427Y-8346958D02*
G75*
G02*
X8530000Y-9714000I-1535420J-683041D01*
G01*
X5314747Y-9058805D02*
G75*
G02*
X5460000Y-8346000I1680254J28806D01*
G01*
X5460244Y-9713318D02*
G75*
G02*
X5315000Y-9030000I1534756J683318D01*
G01*
X7678042Y-10565427D02*
G75*
G02*
X6311000Y-10565000I-683042J1535427D01*
G01*
X8675000Y-14030000D02*
G75*
G02*
X5315000Y-14030000I-1680000J0D01*
G01*
X5315000Y-14030000D02*
G75*
G02*
X8675000Y-14030000I1680000J0D01*
G01*
%TO.C,D1*%
X46555000Y-8965000D02*
X43465000Y-8965000D01*
X46554830Y-8965000D02*
G75*
G02*
X45009538Y-14515000I-1544830J-2560000D01*
G01*
X45010462Y-14515000D02*
G75*
G02*
X43465170Y-8965000I-462J2990000D01*
G01*
X47510000Y-11525000D02*
G75*
G02*
X42510000Y-11525000I-2500000J0D01*
G01*
X42510000Y-11525000D02*
G75*
G02*
X47510000Y-11525000I2500000J0D01*
G01*
%TO.C,C1*%
X44030000Y-4220000D02*
X44030000Y-4845000D01*
X44030000Y-4220000D02*
X48070000Y-4220000D01*
X44030000Y-6435000D02*
X44030000Y-7060000D01*
X44030000Y-7060000D02*
X48070000Y-7060000D01*
X48070000Y-4220000D02*
X48070000Y-4845000D01*
X48070000Y-6435000D02*
X48070000Y-7060000D01*
%TD*%
M02*
