%TF.GenerationSoftware,KiCad,Pcbnew,8.0.6*%
%TF.CreationDate,2026-09-30T19:37:37-06:00*%
%TF.ProjectId,555_Astable,3535355f-4173-4746-9162-6c652e6b6963,rev?*%
%TF.SameCoordinates,PX6798ff0PY43da9b0*%
%TF.FileFunction,Copper,L2,Bot*%
%TF.FilePolarity,Positive*%
%FSLAX46Y46*%
G04 Gerber Fmt 4.6, Leading zero omitted, Abs format (unit mm)*
G04 Created by KiCad (PCBNEW 8.0.6) date 2026-09-30 19:37:37*
%MOMM*%
%LPD*%
G01*
G04 APERTURE LIST*
%ADD10C,0.250000*%
%TA.AperFunction,NonConductor*%
%ADD11C,0.250000*%
%TD*%
%ADD12C,0.200000*%
%TA.AperFunction,NonConductor*%
%ADD13C,0.200000*%
%TD*%
%TA.AperFunction,ComponentPad*%
%ADD14C,1.600000*%
%TD*%
%TA.AperFunction,ComponentPad*%
%ADD15O,1.600000X1.600000*%
%TD*%
%TA.AperFunction,ComponentPad*%
%ADD16R,1.600000X1.600000*%
%TD*%
%TA.AperFunction,ComponentPad*%
%ADD17R,2.600000X2.600000*%
%TD*%
%TA.AperFunction,ComponentPad*%
%ADD18C,2.600000*%
%TD*%
%TA.AperFunction,ComponentPad*%
%ADD19R,1.800000X1.800000*%
%TD*%
%TA.AperFunction,ComponentPad*%
%ADD20C,1.800000*%
%TD*%
%TA.AperFunction,Conductor*%
%ADD21C,0.863600*%
%TD*%
G04 APERTURE END LIST*
D10*
D11*
X58977431Y-17963666D02*
X58215527Y-17963666D01*
X58596479Y-18344619D02*
X58596479Y-17582714D01*
X57548860Y-17344619D02*
X57358384Y-17344619D01*
X57358384Y-17344619D02*
X57263146Y-17392238D01*
X57263146Y-17392238D02*
X57167908Y-17487476D01*
X57167908Y-17487476D02*
X57120289Y-17677952D01*
X57120289Y-17677952D02*
X57120289Y-18011285D01*
X57120289Y-18011285D02*
X57167908Y-18201761D01*
X57167908Y-18201761D02*
X57263146Y-18297000D01*
X57263146Y-18297000D02*
X57358384Y-18344619D01*
X57358384Y-18344619D02*
X57548860Y-18344619D01*
X57548860Y-18344619D02*
X57644098Y-18297000D01*
X57644098Y-18297000D02*
X57739336Y-18201761D01*
X57739336Y-18201761D02*
X57786955Y-18011285D01*
X57786955Y-18011285D02*
X57786955Y-17677952D01*
X57786955Y-17677952D02*
X57739336Y-17487476D01*
X57739336Y-17487476D02*
X57644098Y-17392238D01*
X57644098Y-17392238D02*
X57548860Y-17344619D01*
X56691717Y-17344619D02*
X56691717Y-18154142D01*
X56691717Y-18154142D02*
X56644098Y-18249380D01*
X56644098Y-18249380D02*
X56596479Y-18297000D01*
X56596479Y-18297000D02*
X56501241Y-18344619D01*
X56501241Y-18344619D02*
X56310765Y-18344619D01*
X56310765Y-18344619D02*
X56215527Y-18297000D01*
X56215527Y-18297000D02*
X56167908Y-18249380D01*
X56167908Y-18249380D02*
X56120289Y-18154142D01*
X56120289Y-18154142D02*
X56120289Y-17344619D01*
X55786955Y-17344619D02*
X55215527Y-17344619D01*
X55501241Y-18344619D02*
X55501241Y-17344619D01*
D10*
D11*
X9077431Y-5273666D02*
X8315527Y-5273666D01*
X8696479Y-5654619D02*
X8696479Y-4892714D01*
X7363146Y-4654619D02*
X7839336Y-4654619D01*
X7839336Y-4654619D02*
X7886955Y-5130809D01*
X7886955Y-5130809D02*
X7839336Y-5083190D01*
X7839336Y-5083190D02*
X7744098Y-5035571D01*
X7744098Y-5035571D02*
X7506003Y-5035571D01*
X7506003Y-5035571D02*
X7410765Y-5083190D01*
X7410765Y-5083190D02*
X7363146Y-5130809D01*
X7363146Y-5130809D02*
X7315527Y-5226047D01*
X7315527Y-5226047D02*
X7315527Y-5464142D01*
X7315527Y-5464142D02*
X7363146Y-5559380D01*
X7363146Y-5559380D02*
X7410765Y-5607000D01*
X7410765Y-5607000D02*
X7506003Y-5654619D01*
X7506003Y-5654619D02*
X7744098Y-5654619D01*
X7744098Y-5654619D02*
X7839336Y-5607000D01*
X7839336Y-5607000D02*
X7886955Y-5559380D01*
X7029812Y-4654619D02*
X6696479Y-5654619D01*
X6696479Y-5654619D02*
X6363146Y-4654619D01*
D12*
D13*
G36*
X41902965Y-21857159D02*
G01*
X41357815Y-22014940D01*
X41384790Y-22110740D01*
X41423060Y-22211467D01*
X41469267Y-22302852D01*
X41523413Y-22384895D01*
X41530739Y-22394494D01*
X41601755Y-22474075D01*
X41681813Y-22541909D01*
X41770912Y-22597997D01*
X41824319Y-22624082D01*
X41917742Y-22657848D01*
X42023133Y-22681967D01*
X42125167Y-22695157D01*
X42236364Y-22700961D01*
X42269818Y-22701263D01*
X42369466Y-22698961D01*
X42481299Y-22690122D01*
X42584682Y-22674655D01*
X42694617Y-22648231D01*
X42793052Y-22612785D01*
X42806175Y-22606985D01*
X42894505Y-22558676D01*
X42977412Y-22496669D01*
X43054897Y-22420965D01*
X43116995Y-22345173D01*
X43165701Y-22274326D01*
X43216998Y-22180262D01*
X43257681Y-22076856D01*
X43287752Y-21964107D01*
X43304703Y-21863014D01*
X43314284Y-21755432D01*
X43316643Y-21664696D01*
X43312491Y-21544567D01*
X43300034Y-21431597D01*
X43279274Y-21325786D01*
X43250209Y-21227135D01*
X43212840Y-21135643D01*
X43154450Y-21031346D01*
X43083086Y-20938236D01*
X43050907Y-20904124D01*
X42962474Y-20827428D01*
X42863259Y-20763732D01*
X42753264Y-20713035D01*
X42657506Y-20681836D01*
X42554848Y-20658958D01*
X42445289Y-20644399D01*
X42328831Y-20638159D01*
X42298639Y-20637899D01*
X42183706Y-20641668D01*
X42076740Y-20652973D01*
X41977741Y-20671816D01*
X41869457Y-20704377D01*
X41772646Y-20747791D01*
X41700732Y-20792260D01*
X41622966Y-20855968D01*
X41553065Y-20931319D01*
X41491029Y-21018313D01*
X41436858Y-21116951D01*
X41397725Y-21208043D01*
X41376866Y-21266580D01*
X41926413Y-21388213D01*
X41961670Y-21296960D01*
X41986985Y-21254368D01*
X42057319Y-21181795D01*
X42114968Y-21145436D01*
X42210672Y-21113214D01*
X42283496Y-21106845D01*
X42383086Y-21117256D01*
X42480381Y-21153857D01*
X42562066Y-21216810D01*
X42607850Y-21273419D01*
X42652673Y-21364447D01*
X42678819Y-21469947D01*
X42689859Y-21567443D01*
X42692847Y-21661765D01*
X42689275Y-21777267D01*
X42678558Y-21878309D01*
X42657027Y-21977916D01*
X42615055Y-22077062D01*
X42591242Y-22110683D01*
X42511633Y-22179933D01*
X42412515Y-22220438D01*
X42305478Y-22232316D01*
X42202275Y-22222966D01*
X42108478Y-22191083D01*
X42035345Y-22136573D01*
X41973910Y-22052172D01*
X41933524Y-21963157D01*
X41905579Y-21868523D01*
X41902965Y-21857159D01*
G37*
G36*
X40165801Y-20638964D02*
G01*
X40281679Y-20647482D01*
X40390825Y-20664518D01*
X40493239Y-20690072D01*
X40588922Y-20724143D01*
X40677872Y-20766733D01*
X40779593Y-20831949D01*
X40870795Y-20910474D01*
X40904039Y-20945330D01*
X40977765Y-21039867D01*
X41038086Y-21144970D01*
X41076692Y-21236660D01*
X41106718Y-21335113D01*
X41128166Y-21440328D01*
X41141034Y-21552306D01*
X41145324Y-21671046D01*
X41144105Y-21735599D01*
X41136653Y-21838627D01*
X41118770Y-21954736D01*
X41091133Y-22062636D01*
X41053741Y-22162327D01*
X41006594Y-22253810D01*
X40970591Y-22309986D01*
X40901231Y-22398890D01*
X40823784Y-22475826D01*
X40738249Y-22540795D01*
X40644626Y-22593796D01*
X40586977Y-22618983D01*
X40493606Y-22650468D01*
X40391957Y-22674396D01*
X40282030Y-22690768D01*
X40184102Y-22698639D01*
X40080425Y-22701263D01*
X40038971Y-22700776D01*
X39939124Y-22695302D01*
X39826456Y-22680705D01*
X39721584Y-22657349D01*
X39624509Y-22625235D01*
X39521109Y-22576699D01*
X39466589Y-22544008D01*
X39379151Y-22479344D01*
X39301857Y-22405189D01*
X39234708Y-22321544D01*
X39177704Y-22228408D01*
X39149768Y-22170393D01*
X39114849Y-22076014D01*
X39088311Y-21972808D01*
X39070153Y-21860775D01*
X39061423Y-21760671D01*
X39058513Y-21654438D01*
X39058604Y-21644180D01*
X39680844Y-21644180D01*
X39681273Y-21684846D01*
X39687713Y-21797320D01*
X39704994Y-21910481D01*
X39737623Y-22015993D01*
X39790753Y-22104333D01*
X39812160Y-22127205D01*
X39895050Y-22187197D01*
X39995685Y-22222193D01*
X40101430Y-22232316D01*
X40137258Y-22231166D01*
X40236138Y-22213907D01*
X40330868Y-22170439D01*
X40409665Y-22101402D01*
X40423388Y-22084380D01*
X40474187Y-21991485D01*
X40504290Y-21886529D01*
X40519009Y-21777412D01*
X40522993Y-21671046D01*
X40522549Y-21633919D01*
X40515880Y-21530576D01*
X40497985Y-21425246D01*
X40464195Y-21324961D01*
X40409176Y-21237759D01*
X40387095Y-21214364D01*
X40304129Y-21152998D01*
X40206756Y-21117201D01*
X40106803Y-21106845D01*
X40070701Y-21107979D01*
X39970997Y-21124980D01*
X39875351Y-21167799D01*
X39795638Y-21235806D01*
X39781737Y-21252513D01*
X39730282Y-21342244D01*
X39699789Y-21441987D01*
X39684880Y-21544689D01*
X39680844Y-21644180D01*
X39058604Y-21644180D01*
X39058779Y-21624544D01*
X39065156Y-21509159D01*
X39080036Y-21400474D01*
X39103418Y-21298491D01*
X39135303Y-21203210D01*
X39187117Y-21093532D01*
X39252215Y-20994325D01*
X39330600Y-20905589D01*
X39365511Y-20873174D01*
X39460670Y-20801284D01*
X39567088Y-20742465D01*
X39660327Y-20704822D01*
X39760772Y-20675543D01*
X39868422Y-20654630D01*
X39983278Y-20642082D01*
X40105338Y-20637899D01*
X40165801Y-20638964D01*
G37*
G36*
X38732205Y-20669162D02*
G01*
X38150907Y-20669162D01*
X37392288Y-21796587D01*
X37392288Y-20669162D01*
X36806106Y-20669162D01*
X36806106Y-22670000D01*
X37392288Y-22670000D01*
X38146999Y-21548436D01*
X38146999Y-22670000D01*
X38732205Y-22670000D01*
X38732205Y-20669162D01*
G37*
G36*
X36406524Y-20669162D02*
G01*
X34738834Y-20669162D01*
X34738834Y-21138108D01*
X35782728Y-21138108D01*
X35782728Y-21419476D01*
X34814061Y-21419476D01*
X34814061Y-21825896D01*
X35782728Y-21825896D01*
X35782728Y-22201053D01*
X34708548Y-22201053D01*
X34708548Y-22670000D01*
X36406524Y-22670000D01*
X36406524Y-20669162D01*
G37*
G36*
X34493126Y-21989539D02*
G01*
X33901081Y-21950949D01*
X33881160Y-22053095D01*
X33843680Y-22147089D01*
X33822923Y-22179071D01*
X33747009Y-22251103D01*
X33651585Y-22293234D01*
X33547906Y-22305589D01*
X33449712Y-22295431D01*
X33356747Y-22255039D01*
X33342742Y-22244040D01*
X33282378Y-22163890D01*
X33270446Y-22100914D01*
X33300109Y-22006767D01*
X33339323Y-21963161D01*
X33424878Y-21914678D01*
X33519246Y-21882435D01*
X33627262Y-21854683D01*
X33657815Y-21847878D01*
X33756489Y-21824339D01*
X33869528Y-21792254D01*
X33971118Y-21757211D01*
X34061259Y-21719210D01*
X34154315Y-21669705D01*
X34242044Y-21606566D01*
X34310566Y-21536555D01*
X34368268Y-21446811D01*
X34403989Y-21346687D01*
X34417727Y-21236182D01*
X34417899Y-21221639D01*
X34407278Y-21117872D01*
X34375416Y-21018145D01*
X34328018Y-20930990D01*
X34262969Y-20851230D01*
X34180174Y-20782918D01*
X34090487Y-20731226D01*
X34057397Y-20716057D01*
X33958661Y-20681863D01*
X33858544Y-20659957D01*
X33745617Y-20645532D01*
X33638627Y-20639120D01*
X33562072Y-20637899D01*
X33445821Y-20641358D01*
X33338561Y-20651733D01*
X33240294Y-20669026D01*
X33134243Y-20698907D01*
X33041141Y-20738749D01*
X32973447Y-20779560D01*
X32892610Y-20849531D01*
X32827481Y-20935490D01*
X32778060Y-21037437D01*
X32748201Y-21137546D01*
X32732135Y-21229944D01*
X33318806Y-21263161D01*
X33346322Y-21168563D01*
X33403429Y-21084452D01*
X33416992Y-21072651D01*
X33506018Y-21027955D01*
X33607358Y-21013289D01*
X33623621Y-21013056D01*
X33723816Y-21025877D01*
X33787264Y-21058485D01*
X33839356Y-21141394D01*
X33841974Y-21168883D01*
X33796545Y-21254368D01*
X33701802Y-21298880D01*
X33598133Y-21325040D01*
X33587962Y-21327152D01*
X33489608Y-21348814D01*
X33376842Y-21376019D01*
X33275381Y-21403368D01*
X33168551Y-21436375D01*
X33064493Y-21475143D01*
X33003733Y-21503007D01*
X32911916Y-21556416D01*
X32827843Y-21623736D01*
X32762660Y-21699451D01*
X32746789Y-21723803D01*
X32700901Y-21818172D01*
X32674060Y-21919930D01*
X32666189Y-22018848D01*
X32674690Y-22124241D01*
X32700192Y-22224997D01*
X32742696Y-22321116D01*
X32773656Y-22372512D01*
X32840593Y-22457279D01*
X32921055Y-22529682D01*
X33003929Y-22583660D01*
X33073098Y-22617732D01*
X33175375Y-22654276D01*
X33275185Y-22677688D01*
X33384626Y-22693105D01*
X33486097Y-22699957D01*
X33557676Y-22701263D01*
X33681209Y-22698126D01*
X33794866Y-22688715D01*
X33898646Y-22673030D01*
X34014483Y-22644601D01*
X34114887Y-22606369D01*
X34215002Y-22547550D01*
X34269399Y-22500495D01*
X34337543Y-22421211D01*
X34393597Y-22334303D01*
X34437561Y-22239770D01*
X34469434Y-22137611D01*
X34489218Y-22027828D01*
X34493126Y-21989539D01*
G37*
G36*
X32339392Y-20669162D02*
G01*
X31716085Y-20669162D01*
X31716085Y-22670000D01*
X32339392Y-22670000D01*
X32339392Y-20669162D01*
G37*
G36*
X31277424Y-20669162D02*
G01*
X29609734Y-20669162D01*
X29609734Y-21138108D01*
X30653628Y-21138108D01*
X30653628Y-21419476D01*
X29684961Y-21419476D01*
X29684961Y-21825896D01*
X30653628Y-21825896D01*
X30653628Y-22201053D01*
X29579448Y-22201053D01*
X29579448Y-22670000D01*
X31277424Y-22670000D01*
X31277424Y-20669162D01*
G37*
G36*
X29257048Y-20669162D02*
G01*
X27589357Y-20669162D01*
X27589357Y-21138108D01*
X28633251Y-21138108D01*
X28633251Y-21419476D01*
X27664584Y-21419476D01*
X27664584Y-21825896D01*
X28633251Y-21825896D01*
X28633251Y-22201053D01*
X27559071Y-22201053D01*
X27559071Y-22670000D01*
X29257048Y-22670000D01*
X29257048Y-20669162D01*
G37*
G36*
X24754187Y-22670000D02*
G01*
X26433112Y-22670000D01*
X26414893Y-22561363D01*
X26385454Y-22455579D01*
X26344795Y-22352646D01*
X26292916Y-22252566D01*
X26258234Y-22196657D01*
X26194281Y-22110819D01*
X26127238Y-22035483D01*
X26047697Y-21956688D01*
X25975065Y-21891162D01*
X25894434Y-21823423D01*
X25805805Y-21753471D01*
X25709176Y-21681304D01*
X25623103Y-21616950D01*
X25538487Y-21549597D01*
X25462619Y-21482812D01*
X25394591Y-21408729D01*
X25345154Y-21323407D01*
X25325715Y-21231898D01*
X25349652Y-21133475D01*
X25393614Y-21077048D01*
X25481130Y-21025304D01*
X25564584Y-21013056D01*
X25662159Y-21030397D01*
X25739951Y-21082421D01*
X25793839Y-21170177D01*
X25822885Y-21273766D01*
X25831297Y-21325687D01*
X26392079Y-21279281D01*
X26374929Y-21181036D01*
X26348917Y-21080950D01*
X26311479Y-20983900D01*
X26270935Y-20911451D01*
X26208968Y-20834772D01*
X26132976Y-20770210D01*
X26042959Y-20717765D01*
X26023272Y-20708729D01*
X25923409Y-20674490D01*
X25818293Y-20653462D01*
X25713695Y-20642326D01*
X25614662Y-20638176D01*
X25579727Y-20637899D01*
X25473688Y-20640235D01*
X25361609Y-20648863D01*
X25262059Y-20663850D01*
X25163629Y-20688763D01*
X25120551Y-20704333D01*
X25024581Y-20752466D01*
X24942444Y-20814433D01*
X24874142Y-20890234D01*
X24862142Y-20907055D01*
X24812425Y-20995783D01*
X24781122Y-21091000D01*
X24768232Y-21192704D01*
X24767864Y-21213824D01*
X24776404Y-21313978D01*
X24802022Y-21411660D01*
X24844719Y-21506869D01*
X24875819Y-21558695D01*
X24940819Y-21643019D01*
X25015775Y-21720109D01*
X25093456Y-21788643D01*
X25183535Y-21859442D01*
X25268073Y-21920174D01*
X25354296Y-21979297D01*
X25435647Y-22036762D01*
X25494242Y-22080886D01*
X25568764Y-22145401D01*
X25628087Y-22201053D01*
X24754187Y-22201053D01*
X24754187Y-22670000D01*
G37*
G36*
X23741323Y-20638788D02*
G01*
X23840333Y-20645902D01*
X23954607Y-20664797D01*
X24058339Y-20694808D01*
X24151528Y-20735933D01*
X24234174Y-20788173D01*
X24319434Y-20865533D01*
X24367863Y-20927655D01*
X24419319Y-21020312D01*
X24460685Y-21129642D01*
X24486514Y-21229110D01*
X24505885Y-21339248D01*
X24518799Y-21460057D01*
X24524248Y-21557666D01*
X24526064Y-21661277D01*
X24526024Y-21675709D01*
X24523530Y-21774544D01*
X24515928Y-21882805D01*
X24503258Y-21986058D01*
X24485519Y-22084305D01*
X24482954Y-22096164D01*
X24457031Y-22195808D01*
X24422245Y-22291568D01*
X24372191Y-22385701D01*
X24339514Y-22432279D01*
X24273723Y-22506983D01*
X24198967Y-22569940D01*
X24115247Y-22621151D01*
X24105352Y-22626080D01*
X24007752Y-22663397D01*
X23908085Y-22685929D01*
X23810910Y-22697429D01*
X23704431Y-22701263D01*
X23648812Y-22700280D01*
X23543849Y-22692418D01*
X23424408Y-22671536D01*
X23318039Y-22638370D01*
X23224740Y-22592920D01*
X23144512Y-22535187D01*
X23065491Y-22449692D01*
X23032318Y-22399873D01*
X22984281Y-22305467D01*
X22945307Y-22196846D01*
X22920654Y-22099713D01*
X22901801Y-21993483D01*
X22888749Y-21878155D01*
X22881498Y-21753728D01*
X22880324Y-21682281D01*
X23436252Y-21682281D01*
X23436980Y-21763356D01*
X23440442Y-21865120D01*
X23449085Y-21975832D01*
X23466050Y-22080397D01*
X23467914Y-22088299D01*
X23500826Y-22184897D01*
X23557885Y-22266999D01*
X23607940Y-22303017D01*
X23705408Y-22326106D01*
X23751787Y-22321211D01*
X23843176Y-22271723D01*
X23902756Y-22186887D01*
X23935578Y-22089527D01*
X23953681Y-21987463D01*
X23964025Y-21881635D01*
X23968998Y-21780510D01*
X23970655Y-21667627D01*
X23969153Y-21555869D01*
X23964645Y-21455679D01*
X23955268Y-21350722D01*
X23938859Y-21249325D01*
X23909106Y-21152274D01*
X23883146Y-21104962D01*
X23808400Y-21036033D01*
X23708339Y-21013056D01*
X23651985Y-21019601D01*
X23564693Y-21066484D01*
X23504152Y-21149832D01*
X23471329Y-21247050D01*
X23453227Y-21351088D01*
X23442883Y-21460059D01*
X23437910Y-21564825D01*
X23436252Y-21682281D01*
X22880324Y-21682281D01*
X22879867Y-21654438D01*
X22880745Y-21594163D01*
X22886505Y-21490115D01*
X22897641Y-21387891D01*
X22914154Y-21287489D01*
X22936043Y-21188911D01*
X22939720Y-21174430D01*
X22969626Y-21079368D01*
X23012735Y-20984235D01*
X23015731Y-20978748D01*
X23073006Y-20893156D01*
X23142672Y-20816685D01*
X23180913Y-20783299D01*
X23264336Y-20728986D01*
X23355652Y-20687725D01*
X23380746Y-20678820D01*
X23483706Y-20653664D01*
X23580739Y-20641840D01*
X23689288Y-20637899D01*
X23741323Y-20638788D01*
G37*
G36*
X21022156Y-22670000D02*
G01*
X22701081Y-22670000D01*
X22682862Y-22561363D01*
X22653423Y-22455579D01*
X22612764Y-22352646D01*
X22560886Y-22252566D01*
X22526203Y-22196657D01*
X22462250Y-22110819D01*
X22395207Y-22035483D01*
X22315666Y-21956688D01*
X22243034Y-21891162D01*
X22162404Y-21823423D01*
X22073774Y-21753471D01*
X21977145Y-21681304D01*
X21891073Y-21616950D01*
X21806456Y-21549597D01*
X21730588Y-21482812D01*
X21662561Y-21408729D01*
X21613123Y-21323407D01*
X21593684Y-21231898D01*
X21617621Y-21133475D01*
X21661584Y-21077048D01*
X21749099Y-21025304D01*
X21832554Y-21013056D01*
X21930129Y-21030397D01*
X22007920Y-21082421D01*
X22061808Y-21170177D01*
X22090854Y-21273766D01*
X22099267Y-21325687D01*
X22660048Y-21279281D01*
X22642898Y-21181036D01*
X22616886Y-21080950D01*
X22579448Y-20983900D01*
X22538904Y-20911451D01*
X22476937Y-20834772D01*
X22400945Y-20770210D01*
X22310928Y-20717765D01*
X22291242Y-20708729D01*
X22191379Y-20674490D01*
X22086263Y-20653462D01*
X21981664Y-20642326D01*
X21882631Y-20638176D01*
X21847697Y-20637899D01*
X21741657Y-20640235D01*
X21629578Y-20648863D01*
X21530028Y-20663850D01*
X21431598Y-20688763D01*
X21388520Y-20704333D01*
X21292550Y-20752466D01*
X21210414Y-20814433D01*
X21142111Y-20890234D01*
X21130111Y-20907055D01*
X21080394Y-20995783D01*
X21049091Y-21091000D01*
X21036202Y-21192704D01*
X21035833Y-21213824D01*
X21044373Y-21313978D01*
X21069991Y-21411660D01*
X21112688Y-21506869D01*
X21143789Y-21558695D01*
X21208788Y-21643019D01*
X21283744Y-21720109D01*
X21361425Y-21788643D01*
X21451505Y-21859442D01*
X21536043Y-21920174D01*
X21622266Y-21979297D01*
X21703616Y-22036762D01*
X21762212Y-22080886D01*
X21836733Y-22145401D01*
X21896057Y-22201053D01*
X21022156Y-22201053D01*
X21022156Y-22670000D01*
G37*
G36*
X19975676Y-20638880D02*
G01*
X20095043Y-20649914D01*
X20205751Y-20673207D01*
X20307801Y-20708761D01*
X20401193Y-20756574D01*
X20485927Y-20816648D01*
X20562002Y-20888981D01*
X20602945Y-20938600D01*
X20662233Y-21032595D01*
X20710335Y-21140711D01*
X20740763Y-21237370D01*
X20764031Y-21343066D01*
X20780139Y-21457799D01*
X20789089Y-21581569D01*
X20791102Y-21680327D01*
X20790145Y-21748208D01*
X20784294Y-21855694D01*
X20773124Y-21956120D01*
X20752699Y-22067311D01*
X20724615Y-22168336D01*
X20682170Y-22273349D01*
X20668206Y-22300840D01*
X20614825Y-22389574D01*
X20554431Y-22466667D01*
X20476823Y-22540520D01*
X20390055Y-22599169D01*
X20317338Y-22633865D01*
X20221865Y-22665271D01*
X20114939Y-22686906D01*
X20014171Y-22697673D01*
X19904989Y-22701263D01*
X19799161Y-22697336D01*
X19688061Y-22683231D01*
X19587464Y-22658867D01*
X19486845Y-22619197D01*
X19436427Y-22591491D01*
X19354691Y-22532002D01*
X19284546Y-22460149D01*
X19225994Y-22375931D01*
X19198834Y-22324745D01*
X19161546Y-22228523D01*
X19139174Y-22127046D01*
X19132774Y-22035457D01*
X19661723Y-22035457D01*
X19662883Y-22070597D01*
X19682678Y-22169201D01*
X19735973Y-22253321D01*
X19819138Y-22307909D01*
X19920132Y-22326106D01*
X19934888Y-22325791D01*
X20036432Y-22303358D01*
X20121877Y-22245505D01*
X20149932Y-22213117D01*
X20192822Y-22120713D01*
X20204431Y-22022756D01*
X20203202Y-21988722D01*
X20182235Y-21892134D01*
X20125785Y-21807334D01*
X20115744Y-21798224D01*
X20030951Y-21748636D01*
X19929413Y-21732107D01*
X19922336Y-21732183D01*
X19824877Y-21751524D01*
X19738904Y-21809776D01*
X19712675Y-21841375D01*
X19672577Y-21934340D01*
X19661723Y-22035457D01*
X19132774Y-22035457D01*
X19131716Y-22020314D01*
X19136260Y-21932706D01*
X19153708Y-21834062D01*
X19190604Y-21727920D01*
X19245311Y-21631409D01*
X19317829Y-21544528D01*
X19378017Y-21490490D01*
X19469092Y-21430223D01*
X19568114Y-21387908D01*
X19675084Y-21363545D01*
X19773098Y-21356950D01*
X19824137Y-21358805D01*
X19926709Y-21375549D01*
X20018318Y-21409706D01*
X20077244Y-21443941D01*
X20154489Y-21503773D01*
X20223970Y-21572861D01*
X20213231Y-21459328D01*
X20198098Y-21346885D01*
X20177368Y-21244769D01*
X20142882Y-21150321D01*
X20112376Y-21103672D01*
X20031788Y-21035710D01*
X19931367Y-21013056D01*
X19895036Y-21015712D01*
X19804361Y-21055554D01*
X19764757Y-21104000D01*
X19730600Y-21200635D01*
X19174214Y-21140062D01*
X19208475Y-21041230D01*
X19256190Y-20945407D01*
X19314410Y-20863091D01*
X19376482Y-20799292D01*
X19455560Y-20741125D01*
X19545952Y-20695540D01*
X19621881Y-20670322D01*
X19722409Y-20650564D01*
X19825197Y-20640657D01*
X19925505Y-20637899D01*
X19975676Y-20638880D01*
G37*
D14*
%TO.P,R3,1*%
%TO.N,Net-(U1-THR)*%
X36930000Y-7560000D03*
D15*
%TO.P,R3,2*%
%TO.N,Net-(U1-DIS)*%
X36930000Y-15180000D03*
%TD*%
D14*
%TO.P,R2,1*%
%TO.N,Net-(D1-A)*%
X14600000Y-15340000D03*
D15*
%TO.P,R2,2*%
%TO.N,Net-(U1-Q)*%
X14600000Y-7720000D03*
%TD*%
D14*
%TO.P,R1,1*%
%TO.N,Net-(U1-DIS)*%
X31390000Y-15340000D03*
D15*
%TO.P,R1,2*%
%TO.N,Net-(J1-Pin_1)*%
X31390000Y-7720000D03*
%TD*%
D16*
%TO.P,U1,1,GND*%
%TO.N,GND*%
X18600000Y-7690000D03*
D15*
%TO.P,U1,2,TR*%
%TO.N,Net-(U1-THR)*%
X18600000Y-10230000D03*
%TO.P,U1,3,Q*%
%TO.N,Net-(U1-Q)*%
X18600000Y-12770000D03*
%TO.P,U1,4,R*%
%TO.N,Net-(J1-Pin_1)*%
X18600000Y-15310000D03*
%TO.P,U1,5,CV*%
%TO.N,unconnected-(U1-CV-Pad5)*%
X26220000Y-15310000D03*
%TO.P,U1,6,THR*%
%TO.N,Net-(U1-THR)*%
X26220000Y-12770000D03*
%TO.P,U1,7,DIS*%
%TO.N,Net-(U1-DIS)*%
X26220000Y-10230000D03*
%TO.P,U1,8,VCC*%
%TO.N,Net-(J1-Pin_1)*%
X26220000Y-7690000D03*
%TD*%
D17*
%TO.P,J2,1,Pin_1*%
%TO.N,Net-(D1-A)*%
X56285000Y-14030000D03*
D18*
%TO.P,J2,2,Pin_2*%
%TO.N,GND*%
X56285000Y-9030000D03*
%TD*%
D17*
%TO.P,J1,1,Pin_1*%
%TO.N,Net-(J1-Pin_1)*%
X6995000Y-9030000D03*
D18*
%TO.P,J1,2,Pin_2*%
%TO.N,GND*%
X6995000Y-14030000D03*
%TD*%
D19*
%TO.P,D1,1,K*%
%TO.N,GND*%
X45010000Y-10255000D03*
D20*
%TO.P,D1,2,A*%
%TO.N,Net-(D1-A)*%
X45010000Y-12795000D03*
%TD*%
D14*
%TO.P,C1,1*%
%TO.N,Net-(U1-THR)*%
X44800000Y-5640000D03*
%TO.P,C1,2*%
%TO.N,GND*%
X47300000Y-5640000D03*
%TD*%
D21*
%TO.N,Net-(D1-A)*%
X39400000Y-18740000D02*
X18000000Y-18740000D01*
X45010000Y-13130000D02*
X39400000Y-18740000D01*
X18000000Y-18740000D02*
X14600000Y-15340000D01*
X45010000Y-12795000D02*
X45010000Y-13130000D01*
X46245000Y-14030000D02*
X56285000Y-14030000D01*
X45010000Y-12795000D02*
X46245000Y-14030000D01*
%TO.N,Net-(J1-Pin_1)*%
X11240000Y-9030000D02*
X6995000Y-9030000D01*
X17520000Y-15310000D02*
X11240000Y-9030000D01*
X18600000Y-15310000D02*
X17520000Y-15310000D01*
%TO.N,Net-(U1-THR)*%
X19540000Y-10230000D02*
X18600000Y-10230000D01*
X34980000Y-5610000D02*
X24160000Y-5610000D01*
X24160000Y-5610000D02*
X19540000Y-10230000D01*
X36930000Y-7560000D02*
X34980000Y-5610000D01*
%TO.N,GND*%
X45010000Y-10225000D02*
X44955000Y-10280000D01*
%TO.N,Net-(U1-THR)*%
X43010000Y-5640000D02*
X44800000Y-5640000D01*
X39650000Y-9000000D02*
X43010000Y-5640000D01*
%TO.N,Net-(U1-Q)*%
X17340000Y-12770000D02*
X18600000Y-12770000D01*
X14600000Y-10030000D02*
X17340000Y-12770000D01*
X14600000Y-7720000D02*
X14600000Y-10030000D01*
%TO.N,Net-(U1-THR)*%
X38210000Y-7560000D02*
X36930000Y-7560000D01*
X39650000Y-9000000D02*
X38210000Y-7560000D01*
X37920000Y-17350000D02*
X39650000Y-15620000D01*
X39650000Y-15620000D02*
X39650000Y-9000000D01*
X28890000Y-15970000D02*
X30280000Y-17360000D01*
X37920000Y-17360000D02*
X37920000Y-17350000D01*
X28890000Y-14080000D02*
X28890000Y-15970000D01*
X30280000Y-17360000D02*
X37920000Y-17360000D01*
X27580000Y-12770000D02*
X28890000Y-14080000D01*
X26220000Y-12770000D02*
X27580000Y-12770000D01*
%TO.N,Net-(U1-DIS)*%
X31390000Y-12460000D02*
X31390000Y-15340000D01*
X29160000Y-10230000D02*
X31390000Y-12460000D01*
X26220000Y-10230000D02*
X29160000Y-10230000D01*
X31550000Y-15180000D02*
X31390000Y-15340000D01*
X36930000Y-15180000D02*
X31550000Y-15180000D01*
%TO.N,Net-(J1-Pin_1)*%
X31360000Y-7690000D02*
X31390000Y-7720000D01*
X26220000Y-7690000D02*
X31360000Y-7690000D01*
X24180000Y-7690000D02*
X26220000Y-7690000D01*
X22390000Y-9480000D02*
X24180000Y-7690000D01*
X19670000Y-15310000D02*
X22390000Y-12590000D01*
X18600000Y-15310000D02*
X19670000Y-15310000D01*
X22390000Y-12590000D02*
X22390000Y-9480000D01*
%TD*%
%TA.AperFunction,Conductor*%
%TO.N,GND*%
G36*
X60126119Y-1020185D02*
G01*
X60171874Y-1072989D01*
X60181818Y-1142147D01*
X60175262Y-1167833D01*
X60075629Y-1434960D01*
X60014804Y-1714566D01*
X59994390Y-1999998D01*
X59994390Y-2000001D01*
X60014804Y-2285433D01*
X60075628Y-2565037D01*
X60175635Y-2833166D01*
X60312770Y-3084309D01*
X60312775Y-3084317D01*
X60484254Y-3313387D01*
X60484270Y-3313405D01*
X60686594Y-3515729D01*
X60686612Y-3515745D01*
X60915682Y-3687224D01*
X60915690Y-3687229D01*
X61166833Y-3824364D01*
X61166832Y-3824364D01*
X61166836Y-3824365D01*
X61166839Y-3824367D01*
X61434954Y-3924369D01*
X61434960Y-3924370D01*
X61434962Y-3924371D01*
X61714566Y-3985195D01*
X61714568Y-3985195D01*
X61714572Y-3985196D01*
X61968220Y-4003337D01*
X61999999Y-4005610D01*
X62000000Y-4005610D01*
X62000001Y-4005610D01*
X62028595Y-4003564D01*
X62285428Y-3985196D01*
X62565046Y-3924369D01*
X62832169Y-3824736D01*
X62901858Y-3819753D01*
X62963181Y-3853238D01*
X62996666Y-3914561D01*
X62999500Y-3940919D01*
X62999500Y-20859080D01*
X62979815Y-20926119D01*
X62927011Y-20971874D01*
X62857853Y-20981818D01*
X62832167Y-20975262D01*
X62700409Y-20926119D01*
X62565046Y-20875631D01*
X62565042Y-20875630D01*
X62565039Y-20875629D01*
X62285433Y-20814804D01*
X62000001Y-20794390D01*
X61999999Y-20794390D01*
X61714566Y-20814804D01*
X61434962Y-20875628D01*
X61166833Y-20975635D01*
X60915690Y-21112770D01*
X60915682Y-21112775D01*
X60686612Y-21284254D01*
X60686594Y-21284270D01*
X60484270Y-21486594D01*
X60484254Y-21486612D01*
X60312775Y-21715682D01*
X60312770Y-21715690D01*
X60175635Y-21966833D01*
X60075628Y-22234962D01*
X60014804Y-22514566D01*
X59994390Y-22799998D01*
X59994390Y-22800001D01*
X60014804Y-23085433D01*
X60075629Y-23365037D01*
X60075631Y-23365046D01*
X60122276Y-23490107D01*
X60175250Y-23632136D01*
X60180234Y-23701827D01*
X60146749Y-23763151D01*
X60085426Y-23796635D01*
X60059068Y-23799469D01*
X3940920Y-23799498D01*
X3873881Y-23779813D01*
X3828126Y-23727010D01*
X3818182Y-23657851D01*
X3824736Y-23632171D01*
X3924369Y-23365046D01*
X3958801Y-23206763D01*
X18626223Y-23206763D01*
X43822141Y-23206763D01*
X43822141Y-20132399D01*
X18626223Y-20132399D01*
X18626223Y-23206763D01*
X3958801Y-23206763D01*
X3985196Y-23085428D01*
X4005610Y-22800000D01*
X3985196Y-22514572D01*
X3924369Y-22234954D01*
X3824367Y-21966839D01*
X3687226Y-21715685D01*
X3687224Y-21715682D01*
X3515745Y-21486612D01*
X3515729Y-21486594D01*
X3313405Y-21284270D01*
X3313387Y-21284254D01*
X3084317Y-21112775D01*
X3084309Y-21112770D01*
X2833166Y-20975635D01*
X2833167Y-20975635D01*
X2700409Y-20926119D01*
X2565046Y-20875631D01*
X2565043Y-20875630D01*
X2565037Y-20875628D01*
X2285433Y-20814804D01*
X2000001Y-20794390D01*
X1999999Y-20794390D01*
X1714566Y-20814804D01*
X1434960Y-20875629D01*
X1434955Y-20875630D01*
X1434954Y-20875631D01*
X1306332Y-20923604D01*
X1167833Y-20975262D01*
X1098142Y-20980246D01*
X1036819Y-20946761D01*
X1003334Y-20885438D01*
X1000500Y-20859080D01*
X1000500Y-14029995D01*
X5189953Y-14029995D01*
X5189953Y-14030004D01*
X5210113Y-14299026D01*
X5210113Y-14299028D01*
X5270142Y-14562033D01*
X5270148Y-14562052D01*
X5368709Y-14813181D01*
X5368708Y-14813181D01*
X5503602Y-15046822D01*
X5557294Y-15114151D01*
X6393957Y-14277487D01*
X6418978Y-14337890D01*
X6490112Y-14444351D01*
X6580649Y-14534888D01*
X6687110Y-14606022D01*
X6747510Y-14631041D01*
X5909848Y-15468702D01*
X6092483Y-15593220D01*
X6092485Y-15593221D01*
X6335539Y-15710269D01*
X6335537Y-15710269D01*
X6593337Y-15789790D01*
X6593343Y-15789792D01*
X6860101Y-15829999D01*
X6860110Y-15830000D01*
X7129890Y-15830000D01*
X7129898Y-15829999D01*
X7396656Y-15789792D01*
X7396662Y-15789790D01*
X7654461Y-15710269D01*
X7897521Y-15593218D01*
X8080150Y-15468702D01*
X7242488Y-14631041D01*
X7302890Y-14606022D01*
X7409351Y-14534888D01*
X7499888Y-14444351D01*
X7571022Y-14337890D01*
X7596041Y-14277488D01*
X8432703Y-15114151D01*
X8432704Y-15114150D01*
X8486393Y-15046828D01*
X8486400Y-15046817D01*
X8621290Y-14813181D01*
X8719851Y-14562052D01*
X8719857Y-14562033D01*
X8779886Y-14299028D01*
X8779886Y-14299026D01*
X8800047Y-14030004D01*
X8800047Y-14029995D01*
X8779886Y-13760973D01*
X8779886Y-13760971D01*
X8719857Y-13497966D01*
X8719851Y-13497947D01*
X8621290Y-13246818D01*
X8621291Y-13246818D01*
X8486397Y-13013177D01*
X8432704Y-12945847D01*
X7596041Y-13782510D01*
X7571022Y-13722110D01*
X7499888Y-13615649D01*
X7409351Y-13525112D01*
X7302890Y-13453978D01*
X7242488Y-13428958D01*
X8080150Y-12591296D01*
X7897517Y-12466779D01*
X7897516Y-12466778D01*
X7654460Y-12349730D01*
X7654462Y-12349730D01*
X7396662Y-12270209D01*
X7396656Y-12270207D01*
X7129898Y-12230000D01*
X6860101Y-12230000D01*
X6593343Y-12270207D01*
X6593337Y-12270209D01*
X6335538Y-12349730D01*
X6092485Y-12466778D01*
X6092476Y-12466783D01*
X5909848Y-12591296D01*
X6747511Y-13428958D01*
X6687110Y-13453978D01*
X6580649Y-13525112D01*
X6490112Y-13615649D01*
X6418978Y-13722110D01*
X6393958Y-13782511D01*
X5557295Y-12945848D01*
X5503600Y-13013180D01*
X5368709Y-13246818D01*
X5270148Y-13497947D01*
X5270142Y-13497966D01*
X5210113Y-13760971D01*
X5210113Y-13760973D01*
X5189953Y-14029995D01*
X1000500Y-14029995D01*
X1000500Y-7682135D01*
X5194500Y-7682135D01*
X5194500Y-10377870D01*
X5194501Y-10377876D01*
X5200908Y-10437483D01*
X5251202Y-10572328D01*
X5251206Y-10572335D01*
X5337452Y-10687544D01*
X5337455Y-10687547D01*
X5452664Y-10773793D01*
X5452671Y-10773797D01*
X5587517Y-10824091D01*
X5587516Y-10824091D01*
X5594444Y-10824835D01*
X5647127Y-10830500D01*
X8342872Y-10830499D01*
X8402483Y-10824091D01*
X8537331Y-10773796D01*
X8652546Y-10687546D01*
X8738796Y-10572331D01*
X8789091Y-10437483D01*
X8795500Y-10377873D01*
X8795500Y-10086300D01*
X8815185Y-10019261D01*
X8867989Y-9973506D01*
X8919500Y-9962300D01*
X10802467Y-9962300D01*
X10869506Y-9981985D01*
X10890148Y-9998619D01*
X14716420Y-13824891D01*
X14749905Y-13886214D01*
X14744921Y-13955906D01*
X14703049Y-14011839D01*
X14637585Y-14036256D01*
X14617935Y-14036100D01*
X14600007Y-14034532D01*
X14599998Y-14034532D01*
X14373313Y-14054364D01*
X14373302Y-14054366D01*
X14153511Y-14113258D01*
X14153502Y-14113261D01*
X13947267Y-14209431D01*
X13947265Y-14209432D01*
X13760858Y-14339954D01*
X13599954Y-14500858D01*
X13469432Y-14687265D01*
X13469431Y-14687267D01*
X13373261Y-14893502D01*
X13373258Y-14893511D01*
X13314366Y-15113302D01*
X13314364Y-15113313D01*
X13294532Y-15339998D01*
X13294532Y-15340001D01*
X13314364Y-15566686D01*
X13314366Y-15566697D01*
X13373258Y-15786488D01*
X13373261Y-15786497D01*
X13469431Y-15992732D01*
X13469432Y-15992734D01*
X13599954Y-16179141D01*
X13760858Y-16340045D01*
X13760861Y-16340047D01*
X13947266Y-16470568D01*
X14153504Y-16566739D01*
X14373308Y-16625635D01*
X14540790Y-16640287D01*
X14605858Y-16665739D01*
X14617663Y-16676134D01*
X17272709Y-19331180D01*
X17272738Y-19331211D01*
X17405689Y-19464162D01*
X17405693Y-19464165D01*
X17558383Y-19566190D01*
X17558390Y-19566194D01*
X17657779Y-19607362D01*
X17728058Y-19636473D01*
X17878278Y-19666353D01*
X17908171Y-19672299D01*
X17908175Y-19672300D01*
X17908176Y-19672300D01*
X39491823Y-19672300D01*
X39491824Y-19672300D01*
X39521706Y-19666355D01*
X39671942Y-19636473D01*
X39742220Y-19607362D01*
X39841610Y-19566194D01*
X39994307Y-19464165D01*
X40124165Y-19334307D01*
X40124166Y-19334305D01*
X40131232Y-19327239D01*
X40131234Y-19327235D01*
X40481915Y-18976554D01*
X54585027Y-18976554D01*
X59607931Y-18976554D01*
X59607931Y-16712684D01*
X54585027Y-16712684D01*
X54585027Y-18976554D01*
X40481915Y-18976554D01*
X45089822Y-14368648D01*
X45151141Y-14335166D01*
X45220833Y-14340150D01*
X45265180Y-14368651D01*
X45517709Y-14621180D01*
X45517738Y-14621211D01*
X45650689Y-14754162D01*
X45650693Y-14754165D01*
X45803383Y-14856190D01*
X45803392Y-14856195D01*
X45853084Y-14876778D01*
X45973058Y-14926473D01*
X46153172Y-14962300D01*
X46153175Y-14962301D01*
X46153177Y-14962301D01*
X46342938Y-14962301D01*
X46342958Y-14962300D01*
X54360501Y-14962300D01*
X54427540Y-14981985D01*
X54473295Y-15034789D01*
X54484501Y-15086300D01*
X54484501Y-15377876D01*
X54490908Y-15437483D01*
X54541202Y-15572328D01*
X54541206Y-15572335D01*
X54627452Y-15687544D01*
X54627455Y-15687547D01*
X54742664Y-15773793D01*
X54742671Y-15773797D01*
X54877517Y-15824091D01*
X54877516Y-15824091D01*
X54884444Y-15824835D01*
X54937127Y-15830500D01*
X57632872Y-15830499D01*
X57692483Y-15824091D01*
X57827331Y-15773796D01*
X57942546Y-15687546D01*
X58028796Y-15572331D01*
X58079091Y-15437483D01*
X58085500Y-15377873D01*
X58085499Y-12682128D01*
X58079091Y-12622517D01*
X58067446Y-12591296D01*
X58028797Y-12487671D01*
X58028793Y-12487664D01*
X57942547Y-12372455D01*
X57942544Y-12372452D01*
X57827335Y-12286206D01*
X57827328Y-12286202D01*
X57692482Y-12235908D01*
X57692483Y-12235908D01*
X57632883Y-12229501D01*
X57632881Y-12229500D01*
X57632873Y-12229500D01*
X57632864Y-12229500D01*
X54937129Y-12229500D01*
X54937123Y-12229501D01*
X54877516Y-12235908D01*
X54742671Y-12286202D01*
X54742664Y-12286206D01*
X54627455Y-12372452D01*
X54627452Y-12372455D01*
X54541206Y-12487664D01*
X54541202Y-12487671D01*
X54490908Y-12622517D01*
X54484532Y-12681825D01*
X54484501Y-12682123D01*
X54484500Y-12682135D01*
X54484500Y-12973700D01*
X54464815Y-13040739D01*
X54412011Y-13086494D01*
X54360500Y-13097700D01*
X46682533Y-13097700D01*
X46615494Y-13078015D01*
X46594852Y-13061381D01*
X46449297Y-12915826D01*
X46415812Y-12854503D01*
X46413402Y-12817902D01*
X46414069Y-12809852D01*
X46415300Y-12795000D01*
X46396134Y-12563695D01*
X46376882Y-12487671D01*
X46339157Y-12338699D01*
X46245924Y-12126151D01*
X46118981Y-11931849D01*
X46023832Y-11828489D01*
X45992910Y-11765835D01*
X46000770Y-11696409D01*
X46044918Y-11642253D01*
X46071730Y-11628325D01*
X46152084Y-11598355D01*
X46152093Y-11598350D01*
X46267187Y-11512190D01*
X46267190Y-11512187D01*
X46353350Y-11397093D01*
X46353354Y-11397086D01*
X46403596Y-11262379D01*
X46403598Y-11262372D01*
X46409999Y-11202844D01*
X46410000Y-11202827D01*
X46410000Y-10505000D01*
X45385278Y-10505000D01*
X45429333Y-10428694D01*
X45460000Y-10314244D01*
X45460000Y-10195756D01*
X45429333Y-10081306D01*
X45385278Y-10005000D01*
X46410000Y-10005000D01*
X46410000Y-9307172D01*
X46409999Y-9307155D01*
X46403598Y-9247627D01*
X46403596Y-9247620D01*
X46353354Y-9112913D01*
X46353350Y-9112906D01*
X46291282Y-9029995D01*
X54479953Y-9029995D01*
X54479953Y-9030004D01*
X54500113Y-9299026D01*
X54500113Y-9299028D01*
X54560142Y-9562033D01*
X54560148Y-9562052D01*
X54658709Y-9813181D01*
X54658708Y-9813181D01*
X54793602Y-10046822D01*
X54847294Y-10114151D01*
X54847295Y-10114151D01*
X55683958Y-9277488D01*
X55708978Y-9337890D01*
X55780112Y-9444351D01*
X55870649Y-9534888D01*
X55977110Y-9606022D01*
X56037510Y-9631041D01*
X55199848Y-10468702D01*
X55382483Y-10593220D01*
X55382485Y-10593221D01*
X55625539Y-10710269D01*
X55625537Y-10710269D01*
X55883337Y-10789790D01*
X55883343Y-10789792D01*
X56150101Y-10829999D01*
X56150110Y-10830000D01*
X56419890Y-10830000D01*
X56419898Y-10829999D01*
X56686656Y-10789792D01*
X56686662Y-10789790D01*
X56944461Y-10710269D01*
X57187521Y-10593218D01*
X57370150Y-10468702D01*
X56532488Y-9631041D01*
X56592890Y-9606022D01*
X56699351Y-9534888D01*
X56789888Y-9444351D01*
X56861022Y-9337890D01*
X56886041Y-9277488D01*
X57722703Y-10114151D01*
X57722704Y-10114150D01*
X57776393Y-10046828D01*
X57776400Y-10046817D01*
X57911290Y-9813181D01*
X58009851Y-9562052D01*
X58009857Y-9562033D01*
X58069886Y-9299028D01*
X58069886Y-9299026D01*
X58090047Y-9030004D01*
X58090047Y-9029995D01*
X58069886Y-8760973D01*
X58069886Y-8760971D01*
X58009857Y-8497966D01*
X58009851Y-8497947D01*
X57911290Y-8246818D01*
X57911291Y-8246818D01*
X57776397Y-8013177D01*
X57722704Y-7945847D01*
X56886041Y-8782510D01*
X56861022Y-8722110D01*
X56789888Y-8615649D01*
X56699351Y-8525112D01*
X56592890Y-8453978D01*
X56532488Y-8428958D01*
X57370150Y-7591296D01*
X57187517Y-7466779D01*
X57187516Y-7466778D01*
X56944460Y-7349730D01*
X56944462Y-7349730D01*
X56686662Y-7270209D01*
X56686656Y-7270207D01*
X56419898Y-7230000D01*
X56150101Y-7230000D01*
X55883343Y-7270207D01*
X55883337Y-7270209D01*
X55625538Y-7349730D01*
X55382485Y-7466778D01*
X55382476Y-7466783D01*
X55199848Y-7591296D01*
X56037511Y-8428958D01*
X55977110Y-8453978D01*
X55870649Y-8525112D01*
X55780112Y-8615649D01*
X55708978Y-8722110D01*
X55683958Y-8782511D01*
X54847295Y-7945848D01*
X54793600Y-8013180D01*
X54658709Y-8246818D01*
X54560148Y-8497947D01*
X54560142Y-8497966D01*
X54500113Y-8760971D01*
X54500113Y-8760973D01*
X54479953Y-9029995D01*
X46291282Y-9029995D01*
X46267190Y-8997812D01*
X46267187Y-8997809D01*
X46152093Y-8911649D01*
X46152086Y-8911645D01*
X46017379Y-8861403D01*
X46017372Y-8861401D01*
X45957844Y-8855000D01*
X45260000Y-8855000D01*
X45260000Y-9879722D01*
X45183694Y-9835667D01*
X45069244Y-9805000D01*
X44950756Y-9805000D01*
X44836306Y-9835667D01*
X44760000Y-9879722D01*
X44760000Y-8855000D01*
X44062155Y-8855000D01*
X44002627Y-8861401D01*
X44002620Y-8861403D01*
X43867913Y-8911645D01*
X43867906Y-8911649D01*
X43752812Y-8997809D01*
X43752809Y-8997812D01*
X43666649Y-9112906D01*
X43666645Y-9112913D01*
X43616403Y-9247620D01*
X43616401Y-9247627D01*
X43610000Y-9307155D01*
X43610000Y-10005000D01*
X44634722Y-10005000D01*
X44590667Y-10081306D01*
X44560000Y-10195756D01*
X44560000Y-10314244D01*
X44590667Y-10428694D01*
X44634722Y-10505000D01*
X43610000Y-10505000D01*
X43610000Y-11202844D01*
X43616401Y-11262372D01*
X43616403Y-11262379D01*
X43666645Y-11397086D01*
X43666649Y-11397093D01*
X43752809Y-11512187D01*
X43752812Y-11512190D01*
X43867906Y-11598350D01*
X43867913Y-11598354D01*
X43948270Y-11628325D01*
X44004204Y-11670196D01*
X44028621Y-11735660D01*
X44013770Y-11803933D01*
X43996168Y-11828489D01*
X43901021Y-11931847D01*
X43901019Y-11931848D01*
X43901016Y-11931853D01*
X43774075Y-12126151D01*
X43680842Y-12338699D01*
X43623866Y-12563691D01*
X43623864Y-12563702D01*
X43604700Y-12794993D01*
X43604700Y-12795006D01*
X43623865Y-13026301D01*
X43641195Y-13094736D01*
X43638570Y-13164556D01*
X43608670Y-13212857D01*
X40716371Y-16105156D01*
X40655048Y-16138641D01*
X40585356Y-16133657D01*
X40529423Y-16091785D01*
X40505006Y-16026321D01*
X40514127Y-15970028D01*
X40546472Y-15891942D01*
X40566791Y-15789792D01*
X40582300Y-15711826D01*
X40582300Y-9437533D01*
X40601985Y-9370494D01*
X40618619Y-9349852D01*
X43359852Y-6608619D01*
X43421175Y-6575134D01*
X43447533Y-6572300D01*
X43841751Y-6572300D01*
X43908790Y-6591985D01*
X43929432Y-6608619D01*
X43960858Y-6640045D01*
X43960861Y-6640047D01*
X44147266Y-6770568D01*
X44353504Y-6866739D01*
X44573308Y-6925635D01*
X44735230Y-6939801D01*
X44799998Y-6945468D01*
X44800000Y-6945468D01*
X44800002Y-6945468D01*
X44856673Y-6940509D01*
X45026692Y-6925635D01*
X45246496Y-6866739D01*
X45452734Y-6770568D01*
X45639139Y-6640047D01*
X45800047Y-6479139D01*
X45930568Y-6292734D01*
X45937893Y-6277024D01*
X45984064Y-6224586D01*
X46051257Y-6205433D01*
X46118138Y-6225648D01*
X46162657Y-6277024D01*
X46169864Y-6292480D01*
X46220974Y-6365472D01*
X46900000Y-5686446D01*
X46900000Y-5692661D01*
X46927259Y-5794394D01*
X46979920Y-5885606D01*
X47054394Y-5960080D01*
X47145606Y-6012741D01*
X47247339Y-6040000D01*
X47253553Y-6040000D01*
X46574526Y-6719025D01*
X46647513Y-6770132D01*
X46647521Y-6770136D01*
X46853668Y-6866264D01*
X46853682Y-6866269D01*
X47073389Y-6925139D01*
X47073400Y-6925141D01*
X47299998Y-6944966D01*
X47300002Y-6944966D01*
X47526599Y-6925141D01*
X47526610Y-6925139D01*
X47746317Y-6866269D01*
X47746331Y-6866264D01*
X47952478Y-6770136D01*
X48025471Y-6719024D01*
X47346447Y-6040000D01*
X47352661Y-6040000D01*
X47454394Y-6012741D01*
X47545606Y-5960080D01*
X47620080Y-5885606D01*
X47672741Y-5794394D01*
X47700000Y-5692661D01*
X47700000Y-5686447D01*
X48379024Y-6365471D01*
X48430136Y-6292478D01*
X48526264Y-6086331D01*
X48526269Y-6086317D01*
X48585139Y-5866610D01*
X48585141Y-5866599D01*
X48604966Y-5640002D01*
X48604966Y-5639997D01*
X48585141Y-5413400D01*
X48585139Y-5413389D01*
X48526269Y-5193682D01*
X48526264Y-5193668D01*
X48430136Y-4987521D01*
X48430132Y-4987513D01*
X48379025Y-4914526D01*
X47700000Y-5593551D01*
X47700000Y-5587339D01*
X47672741Y-5485606D01*
X47620080Y-5394394D01*
X47545606Y-5319920D01*
X47454394Y-5267259D01*
X47352661Y-5240000D01*
X47346448Y-5240000D01*
X48025472Y-4560974D01*
X47952478Y-4509863D01*
X47746331Y-4413735D01*
X47746317Y-4413730D01*
X47526610Y-4354860D01*
X47526599Y-4354858D01*
X47300002Y-4335034D01*
X47299998Y-4335034D01*
X47073400Y-4354858D01*
X47073389Y-4354860D01*
X46853682Y-4413730D01*
X46853673Y-4413734D01*
X46647516Y-4509866D01*
X46647512Y-4509868D01*
X46574526Y-4560973D01*
X46574526Y-4560974D01*
X47253553Y-5240000D01*
X47247339Y-5240000D01*
X47145606Y-5267259D01*
X47054394Y-5319920D01*
X46979920Y-5394394D01*
X46927259Y-5485606D01*
X46900000Y-5587339D01*
X46900000Y-5593552D01*
X46220974Y-4914526D01*
X46220973Y-4914526D01*
X46169868Y-4987512D01*
X46169867Y-4987514D01*
X46162656Y-5002979D01*
X46116482Y-5055417D01*
X46049288Y-5074567D01*
X45982407Y-5054350D01*
X45937893Y-5002976D01*
X45930568Y-4987266D01*
X45800047Y-4800861D01*
X45800045Y-4800858D01*
X45639141Y-4639954D01*
X45452734Y-4509432D01*
X45452732Y-4509431D01*
X45246497Y-4413261D01*
X45246488Y-4413258D01*
X45026697Y-4354366D01*
X45026693Y-4354365D01*
X45026692Y-4354365D01*
X45026691Y-4354364D01*
X45026686Y-4354364D01*
X44800002Y-4334532D01*
X44799998Y-4334532D01*
X44573313Y-4354364D01*
X44573302Y-4354366D01*
X44353511Y-4413258D01*
X44353502Y-4413261D01*
X44147267Y-4509431D01*
X44147265Y-4509432D01*
X43960858Y-4639954D01*
X43929432Y-4671381D01*
X43868109Y-4704866D01*
X43841751Y-4707700D01*
X43107958Y-4707700D01*
X43107938Y-4707699D01*
X43101824Y-4707699D01*
X42918177Y-4707699D01*
X42918174Y-4707699D01*
X42738065Y-4743524D01*
X42738065Y-4743525D01*
X42738062Y-4743526D01*
X42738058Y-4743527D01*
X42618084Y-4793221D01*
X42618082Y-4793221D01*
X42568389Y-4813806D01*
X42568387Y-4813807D01*
X42415697Y-4915831D01*
X42415694Y-4915833D01*
X42350765Y-4980763D01*
X42285835Y-5045693D01*
X42285832Y-5045696D01*
X39737680Y-7593847D01*
X39676357Y-7627332D01*
X39606665Y-7622348D01*
X39562318Y-7593847D01*
X38938505Y-6970034D01*
X38938485Y-6970012D01*
X38804310Y-6835837D01*
X38804306Y-6835834D01*
X38651616Y-6733809D01*
X38651606Y-6733804D01*
X38552220Y-6692637D01*
X38552220Y-6692636D01*
X38481945Y-6663528D01*
X38481943Y-6663527D01*
X38481942Y-6663527D01*
X38331706Y-6633644D01*
X38316765Y-6630672D01*
X38301825Y-6627700D01*
X38301824Y-6627700D01*
X37888249Y-6627700D01*
X37821210Y-6608015D01*
X37800568Y-6591381D01*
X37769141Y-6559954D01*
X37582734Y-6429432D01*
X37582732Y-6429431D01*
X37376497Y-6333261D01*
X37376488Y-6333258D01*
X37156697Y-6274366D01*
X37156687Y-6274364D01*
X36989209Y-6259711D01*
X36924140Y-6234258D01*
X36912336Y-6223864D01*
X35711235Y-5022764D01*
X35711232Y-5022760D01*
X35711232Y-5022761D01*
X35704165Y-5015694D01*
X35704165Y-5015693D01*
X35574307Y-4885835D01*
X35574306Y-4885834D01*
X35574305Y-4885833D01*
X35421616Y-4783809D01*
X35421603Y-4783802D01*
X35314646Y-4739500D01*
X35251942Y-4713527D01*
X35251927Y-4713524D01*
X35101706Y-4683644D01*
X35086765Y-4680672D01*
X35071825Y-4677700D01*
X35071824Y-4677700D01*
X24257958Y-4677700D01*
X24257938Y-4677699D01*
X24251824Y-4677699D01*
X24068177Y-4677699D01*
X24068174Y-4677699D01*
X23888065Y-4713524D01*
X23888065Y-4713525D01*
X23888062Y-4713526D01*
X23888058Y-4713527D01*
X23768084Y-4763221D01*
X23768082Y-4763221D01*
X23718389Y-4783806D01*
X23718387Y-4783807D01*
X23565697Y-4885831D01*
X23565694Y-4885833D01*
X23500765Y-4950763D01*
X23435835Y-5015693D01*
X23435832Y-5015696D01*
X20111681Y-8339846D01*
X20050358Y-8373331D01*
X19980666Y-8368347D01*
X19924733Y-8326475D01*
X19900316Y-8261011D01*
X19900000Y-8252165D01*
X19900000Y-7940000D01*
X18915686Y-7940000D01*
X18920080Y-7935606D01*
X18972741Y-7844394D01*
X19000000Y-7742661D01*
X19000000Y-7637339D01*
X18972741Y-7535606D01*
X18920080Y-7444394D01*
X18915686Y-7440000D01*
X19900000Y-7440000D01*
X19900000Y-6842172D01*
X19899999Y-6842155D01*
X19893598Y-6782627D01*
X19893596Y-6782620D01*
X19843354Y-6647913D01*
X19843350Y-6647906D01*
X19757190Y-6532812D01*
X19757187Y-6532809D01*
X19642093Y-6446649D01*
X19642086Y-6446645D01*
X19507379Y-6396403D01*
X19507372Y-6396401D01*
X19447844Y-6390000D01*
X18850000Y-6390000D01*
X18850000Y-7374314D01*
X18845606Y-7369920D01*
X18754394Y-7317259D01*
X18652661Y-7290000D01*
X18547339Y-7290000D01*
X18445606Y-7317259D01*
X18354394Y-7369920D01*
X18350000Y-7374314D01*
X18350000Y-6390000D01*
X17752155Y-6390000D01*
X17692627Y-6396401D01*
X17692620Y-6396403D01*
X17557913Y-6446645D01*
X17557906Y-6446649D01*
X17442812Y-6532809D01*
X17442809Y-6532812D01*
X17356649Y-6647906D01*
X17356645Y-6647913D01*
X17306403Y-6782620D01*
X17306401Y-6782627D01*
X17300000Y-6842155D01*
X17300000Y-7440000D01*
X18284314Y-7440000D01*
X18279920Y-7444394D01*
X18227259Y-7535606D01*
X18200000Y-7637339D01*
X18200000Y-7742661D01*
X18227259Y-7844394D01*
X18279920Y-7935606D01*
X18284314Y-7940000D01*
X17300000Y-7940000D01*
X17300000Y-8537844D01*
X17306401Y-8597372D01*
X17306403Y-8597379D01*
X17356645Y-8732086D01*
X17356649Y-8732093D01*
X17442809Y-8847187D01*
X17442812Y-8847190D01*
X17557906Y-8933350D01*
X17557913Y-8933354D01*
X17692620Y-8983596D01*
X17692627Y-8983598D01*
X17728218Y-8987425D01*
X17792769Y-9014163D01*
X17832618Y-9071555D01*
X17835111Y-9141380D01*
X17799459Y-9201469D01*
X17786088Y-9212287D01*
X17760861Y-9229951D01*
X17599954Y-9390858D01*
X17469432Y-9577265D01*
X17469431Y-9577267D01*
X17373261Y-9783502D01*
X17373258Y-9783511D01*
X17314366Y-10003302D01*
X17314364Y-10003313D01*
X17294532Y-10229998D01*
X17294532Y-10230001D01*
X17314364Y-10456686D01*
X17314366Y-10456697D01*
X17373258Y-10676488D01*
X17373261Y-10676497D01*
X17469431Y-10882732D01*
X17469432Y-10882734D01*
X17599954Y-11069141D01*
X17760858Y-11230045D01*
X17760861Y-11230047D01*
X17947266Y-11360568D01*
X18005275Y-11387618D01*
X18057714Y-11433791D01*
X18076866Y-11500984D01*
X18056650Y-11567865D01*
X18005275Y-11612382D01*
X17947267Y-11639431D01*
X17947265Y-11639432D01*
X17785842Y-11752461D01*
X17719636Y-11774788D01*
X17651868Y-11757777D01*
X17627038Y-11738567D01*
X15568619Y-9680148D01*
X15535134Y-9618825D01*
X15532300Y-9592467D01*
X15532300Y-8678248D01*
X15551985Y-8611209D01*
X15568620Y-8590566D01*
X15600046Y-8559140D01*
X15608564Y-8546975D01*
X15730568Y-8372734D01*
X15826739Y-8166496D01*
X15885635Y-7946692D01*
X15905468Y-7720000D01*
X15885635Y-7493308D01*
X15831159Y-7290000D01*
X15826741Y-7273511D01*
X15826738Y-7273502D01*
X15730568Y-7067266D01*
X15600047Y-6880861D01*
X15600045Y-6880858D01*
X15439141Y-6719954D01*
X15252734Y-6589432D01*
X15252732Y-6589431D01*
X15046497Y-6493261D01*
X15046488Y-6493258D01*
X14826697Y-6434366D01*
X14826693Y-6434365D01*
X14826692Y-6434365D01*
X14826691Y-6434364D01*
X14826686Y-6434364D01*
X14600002Y-6414532D01*
X14599998Y-6414532D01*
X14373313Y-6434364D01*
X14373302Y-6434366D01*
X14153511Y-6493258D01*
X14153502Y-6493261D01*
X13947267Y-6589431D01*
X13947265Y-6589432D01*
X13760858Y-6719954D01*
X13599954Y-6880858D01*
X13469432Y-7067265D01*
X13469431Y-7067267D01*
X13373261Y-7273502D01*
X13373258Y-7273511D01*
X13314366Y-7493302D01*
X13314364Y-7493313D01*
X13294532Y-7719998D01*
X13294532Y-7720001D01*
X13314364Y-7946686D01*
X13314366Y-7946697D01*
X13373258Y-8166488D01*
X13373261Y-8166497D01*
X13469431Y-8372732D01*
X13469432Y-8372734D01*
X13599953Y-8559140D01*
X13631380Y-8590566D01*
X13664866Y-8651888D01*
X13667700Y-8678248D01*
X13667700Y-9839867D01*
X13648015Y-9906906D01*
X13595211Y-9952661D01*
X13526053Y-9962605D01*
X13462497Y-9933580D01*
X13456019Y-9927548D01*
X11968505Y-8440034D01*
X11968485Y-8440012D01*
X11834310Y-8305837D01*
X11834306Y-8305834D01*
X11681616Y-8203809D01*
X11681603Y-8203802D01*
X11562109Y-8154307D01*
X11511942Y-8133527D01*
X11361123Y-8103528D01*
X11331824Y-8097700D01*
X8919499Y-8097700D01*
X8852460Y-8078015D01*
X8806705Y-8025211D01*
X8795499Y-7973700D01*
X8795499Y-7682129D01*
X8795498Y-7682123D01*
X8795497Y-7682116D01*
X8789091Y-7622517D01*
X8787857Y-7619209D01*
X8738797Y-7487671D01*
X8738793Y-7487664D01*
X8652547Y-7372455D01*
X8652544Y-7372452D01*
X8537335Y-7286206D01*
X8537328Y-7286202D01*
X8402482Y-7235908D01*
X8402483Y-7235908D01*
X8342883Y-7229501D01*
X8342881Y-7229500D01*
X8342873Y-7229500D01*
X8342864Y-7229500D01*
X5647129Y-7229500D01*
X5647123Y-7229501D01*
X5587516Y-7235908D01*
X5452671Y-7286202D01*
X5452664Y-7286206D01*
X5337455Y-7372452D01*
X5337452Y-7372455D01*
X5251206Y-7487664D01*
X5251202Y-7487671D01*
X5200908Y-7622517D01*
X5199315Y-7637339D01*
X5194501Y-7682123D01*
X5194500Y-7682135D01*
X1000500Y-7682135D01*
X1000500Y-6286554D01*
X5731211Y-6286554D01*
X9707931Y-6286554D01*
X9707931Y-4022290D01*
X5731211Y-4022290D01*
X5731211Y-6286554D01*
X1000500Y-6286554D01*
X1000500Y-3940919D01*
X1020185Y-3873880D01*
X1072989Y-3828125D01*
X1142147Y-3818181D01*
X1167824Y-3824734D01*
X1434954Y-3924369D01*
X1434960Y-3924370D01*
X1434962Y-3924371D01*
X1714566Y-3985195D01*
X1714568Y-3985195D01*
X1714572Y-3985196D01*
X1968220Y-4003337D01*
X1999999Y-4005610D01*
X2000000Y-4005610D01*
X2000001Y-4005610D01*
X2028595Y-4003564D01*
X2285428Y-3985196D01*
X2565046Y-3924369D01*
X2833161Y-3824367D01*
X3084315Y-3687226D01*
X3313395Y-3515739D01*
X3515739Y-3313395D01*
X3687226Y-3084315D01*
X3824367Y-2833161D01*
X3924369Y-2565046D01*
X3985196Y-2285428D01*
X4005610Y-2000000D01*
X3985196Y-1714572D01*
X3924369Y-1434954D01*
X3824738Y-1167833D01*
X3819754Y-1098142D01*
X3853239Y-1036819D01*
X3914562Y-1003334D01*
X3940920Y-1000500D01*
X60059080Y-1000500D01*
X60126119Y-1020185D01*
G37*
%TD.AperFunction*%
%TD*%
%TA.AperFunction,NonConductor*%
G36*
X21377034Y-9813950D02*
G01*
X21432967Y-9855822D01*
X21457384Y-9921286D01*
X21457700Y-9930132D01*
X21457700Y-12152466D01*
X21438015Y-12219505D01*
X21421381Y-12240147D01*
X19461209Y-14200318D01*
X19399886Y-14233803D01*
X19330194Y-14228819D01*
X19302407Y-14214213D01*
X19252734Y-14179432D01*
X19236429Y-14171829D01*
X19194725Y-14152382D01*
X19142285Y-14106210D01*
X19123133Y-14039017D01*
X19143348Y-13972135D01*
X19194725Y-13927618D01*
X19252734Y-13900568D01*
X19439139Y-13770047D01*
X19600047Y-13609139D01*
X19730568Y-13422734D01*
X19826739Y-13216496D01*
X19885635Y-12996692D01*
X19905468Y-12770000D01*
X19885635Y-12543308D01*
X19838709Y-12368176D01*
X19826741Y-12323511D01*
X19826738Y-12323502D01*
X19730568Y-12117266D01*
X19600047Y-11930861D01*
X19600045Y-11930858D01*
X19439141Y-11769954D01*
X19252734Y-11639432D01*
X19252728Y-11639429D01*
X19194725Y-11612382D01*
X19142285Y-11566210D01*
X19123133Y-11499017D01*
X19143348Y-11432135D01*
X19194725Y-11387618D01*
X19252734Y-11360568D01*
X19439139Y-11230047D01*
X19439141Y-11230045D01*
X19470568Y-11198619D01*
X19531891Y-11165134D01*
X19558249Y-11162300D01*
X19631823Y-11162300D01*
X19631824Y-11162300D01*
X19661706Y-11156355D01*
X19811942Y-11126473D01*
X19885765Y-11095894D01*
X19981610Y-11056194D01*
X20134307Y-10954165D01*
X20264165Y-10824307D01*
X20264166Y-10824305D01*
X20271232Y-10817239D01*
X20271234Y-10817235D01*
X21246020Y-9842450D01*
X21307342Y-9808966D01*
X21377034Y-9813950D01*
G37*
%TD.AperFunction*%
%TA.AperFunction,NonConductor*%
G36*
X17708790Y-13721985D02*
G01*
X17729432Y-13738619D01*
X17760858Y-13770045D01*
X17760861Y-13770047D01*
X17947266Y-13900568D01*
X18005275Y-13927618D01*
X18057714Y-13973791D01*
X18076866Y-14040984D01*
X18056650Y-14107865D01*
X18005275Y-14152382D01*
X17947263Y-14179433D01*
X17891710Y-14218331D01*
X17825503Y-14240658D01*
X17757736Y-14223646D01*
X17732907Y-14204436D01*
X17442452Y-13913981D01*
X17408967Y-13852658D01*
X17413951Y-13782966D01*
X17455823Y-13727033D01*
X17521287Y-13702616D01*
X17530133Y-13702300D01*
X17641751Y-13702300D01*
X17708790Y-13721985D01*
G37*
%TD.AperFunction*%
%TA.AperFunction,NonConductor*%
G36*
X34609506Y-6561985D02*
G01*
X34630148Y-6578619D01*
X35593864Y-7542336D01*
X35627349Y-7603659D01*
X35629711Y-7619209D01*
X35644364Y-7786687D01*
X35644366Y-7786697D01*
X35703258Y-8006488D01*
X35703261Y-8006497D01*
X35799431Y-8212732D01*
X35799432Y-8212734D01*
X35929954Y-8399141D01*
X36090858Y-8560045D01*
X36090861Y-8560047D01*
X36277266Y-8690568D01*
X36483504Y-8786739D01*
X36703308Y-8845635D01*
X36865230Y-8859801D01*
X36929998Y-8865468D01*
X36930000Y-8865468D01*
X36930002Y-8865468D01*
X36986673Y-8860509D01*
X37156692Y-8845635D01*
X37376496Y-8786739D01*
X37582734Y-8690568D01*
X37755921Y-8569301D01*
X37822127Y-8546975D01*
X37889894Y-8563985D01*
X37914725Y-8583196D01*
X38681381Y-9349852D01*
X38714866Y-9411175D01*
X38717700Y-9437533D01*
X38717700Y-15182466D01*
X38698015Y-15249505D01*
X38681381Y-15270147D01*
X38422369Y-15529158D01*
X38361046Y-15562643D01*
X38291354Y-15557659D01*
X38235421Y-15515787D01*
X38211004Y-15450323D01*
X38214914Y-15409381D01*
X38215635Y-15406692D01*
X38235468Y-15180000D01*
X38215635Y-14953308D01*
X38156739Y-14733504D01*
X38060568Y-14527266D01*
X37930047Y-14340861D01*
X37930045Y-14340858D01*
X37769141Y-14179954D01*
X37582734Y-14049432D01*
X37582732Y-14049431D01*
X37376497Y-13953261D01*
X37376488Y-13953258D01*
X37156697Y-13894366D01*
X37156693Y-13894365D01*
X37156692Y-13894365D01*
X37156691Y-13894364D01*
X37156686Y-13894364D01*
X36930002Y-13874532D01*
X36929998Y-13874532D01*
X36703313Y-13894364D01*
X36703302Y-13894366D01*
X36483511Y-13953258D01*
X36483502Y-13953261D01*
X36277267Y-14049431D01*
X36277265Y-14049432D01*
X36090858Y-14179954D01*
X36059432Y-14211381D01*
X35998109Y-14244866D01*
X35971751Y-14247700D01*
X32446300Y-14247700D01*
X32379261Y-14228015D01*
X32333506Y-14175211D01*
X32322300Y-14123700D01*
X32322300Y-12368175D01*
X32322299Y-12368174D01*
X32305995Y-12286204D01*
X32286473Y-12188058D01*
X32237793Y-12070536D01*
X32216194Y-12018390D01*
X32157707Y-11930858D01*
X32114165Y-11865692D01*
X31981211Y-11732738D01*
X31981180Y-11732709D01*
X29888505Y-9640034D01*
X29888485Y-9640012D01*
X29754310Y-9505837D01*
X29754306Y-9505834D01*
X29601616Y-9403809D01*
X29601606Y-9403804D01*
X29502220Y-9362637D01*
X29502220Y-9362636D01*
X29431945Y-9333528D01*
X29431943Y-9333527D01*
X29431942Y-9333527D01*
X29273150Y-9301942D01*
X29251824Y-9297700D01*
X27178249Y-9297700D01*
X27111210Y-9278015D01*
X27090568Y-9261381D01*
X27059141Y-9229954D01*
X26872734Y-9099432D01*
X26872728Y-9099429D01*
X26814725Y-9072382D01*
X26762285Y-9026210D01*
X26743133Y-8959017D01*
X26763348Y-8892135D01*
X26814725Y-8847618D01*
X26815643Y-8847190D01*
X26872734Y-8820568D01*
X27059139Y-8690047D01*
X27072739Y-8676447D01*
X27090568Y-8658619D01*
X27151891Y-8625134D01*
X27178249Y-8622300D01*
X30401752Y-8622300D01*
X30468791Y-8641985D01*
X30489428Y-8658614D01*
X30520859Y-8690045D01*
X30550862Y-8720048D01*
X30609307Y-8760971D01*
X30737266Y-8850568D01*
X30943504Y-8946739D01*
X31163308Y-9005635D01*
X31325230Y-9019801D01*
X31389998Y-9025468D01*
X31390000Y-9025468D01*
X31390002Y-9025468D01*
X31446673Y-9020509D01*
X31616692Y-9005635D01*
X31836496Y-8946739D01*
X32042734Y-8850568D01*
X32229139Y-8720047D01*
X32390047Y-8559139D01*
X32520568Y-8372734D01*
X32616739Y-8166496D01*
X32675635Y-7946692D01*
X32695468Y-7720000D01*
X32675635Y-7493308D01*
X32621159Y-7290000D01*
X32616741Y-7273511D01*
X32616738Y-7273502D01*
X32520568Y-7067266D01*
X32390047Y-6880861D01*
X32390045Y-6880858D01*
X32263168Y-6753981D01*
X32229683Y-6692658D01*
X32234667Y-6622966D01*
X32276539Y-6567033D01*
X32342003Y-6542616D01*
X32350849Y-6542300D01*
X34542467Y-6542300D01*
X34609506Y-6561985D01*
G37*
%TD.AperFunction*%
%TA.AperFunction,NonConductor*%
G36*
X28789506Y-11181985D02*
G01*
X28810148Y-11198619D01*
X30421381Y-12809852D01*
X30454866Y-12871175D01*
X30457700Y-12897533D01*
X30457700Y-14381751D01*
X30438015Y-14448790D01*
X30421381Y-14469432D01*
X30389954Y-14500858D01*
X30259432Y-14687265D01*
X30259431Y-14687267D01*
X30163261Y-14893502D01*
X30163258Y-14893511D01*
X30104366Y-15113302D01*
X30104364Y-15113313D01*
X30084532Y-15339998D01*
X30084532Y-15340002D01*
X30103358Y-15555190D01*
X30089591Y-15623690D01*
X30040976Y-15673873D01*
X29972947Y-15689806D01*
X29907104Y-15666430D01*
X29892149Y-15653678D01*
X29858619Y-15620148D01*
X29825134Y-15558825D01*
X29822300Y-15532467D01*
X29822300Y-14177958D01*
X29822301Y-14177937D01*
X29822301Y-13988174D01*
X29822300Y-13988172D01*
X29803641Y-13894366D01*
X29786473Y-13808058D01*
X29718521Y-13644008D01*
X29716876Y-13639410D01*
X29614165Y-13485692D01*
X29481211Y-13352738D01*
X29481180Y-13352709D01*
X28308505Y-12180034D01*
X28308485Y-12180012D01*
X28174310Y-12045837D01*
X28174306Y-12045834D01*
X28021616Y-11943809D01*
X28021603Y-11943802D01*
X27912297Y-11898527D01*
X27851942Y-11873527D01*
X27701706Y-11843644D01*
X27686765Y-11840672D01*
X27671825Y-11837700D01*
X27671824Y-11837700D01*
X27178249Y-11837700D01*
X27111210Y-11818015D01*
X27090568Y-11801381D01*
X27059141Y-11769954D01*
X26872734Y-11639432D01*
X26872728Y-11639429D01*
X26814725Y-11612382D01*
X26762285Y-11566210D01*
X26743133Y-11499017D01*
X26763348Y-11432135D01*
X26814725Y-11387618D01*
X26872734Y-11360568D01*
X27059139Y-11230047D01*
X27059141Y-11230045D01*
X27090568Y-11198619D01*
X27151891Y-11165134D01*
X27178249Y-11162300D01*
X28722467Y-11162300D01*
X28789506Y-11181985D01*
G37*
%TD.AperFunction*%
%TA.AperFunction,NonConductor*%
G36*
X36038790Y-16131985D02*
G01*
X36059432Y-16148619D01*
X36090857Y-16180044D01*
X36122391Y-16202124D01*
X36166017Y-16256701D01*
X36173211Y-16326199D01*
X36141689Y-16388554D01*
X36081460Y-16423969D01*
X36051269Y-16427700D01*
X32440849Y-16427700D01*
X32373810Y-16408015D01*
X32328055Y-16355211D01*
X32318111Y-16286053D01*
X32347136Y-16222497D01*
X32353168Y-16216019D01*
X32390044Y-16179142D01*
X32390045Y-16179141D01*
X32390047Y-16179139D01*
X32399825Y-16165175D01*
X32454402Y-16121551D01*
X32501399Y-16112300D01*
X35971751Y-16112300D01*
X36038790Y-16131985D01*
G37*
%TD.AperFunction*%
%TA.AperFunction,NonConductor*%
G36*
X25328790Y-8641985D02*
G01*
X25349432Y-8658619D01*
X25380858Y-8690045D01*
X25380861Y-8690047D01*
X25567266Y-8820568D01*
X25624357Y-8847190D01*
X25625275Y-8847618D01*
X25677714Y-8893791D01*
X25696866Y-8960984D01*
X25676650Y-9027865D01*
X25625275Y-9072382D01*
X25567267Y-9099431D01*
X25567265Y-9099432D01*
X25380858Y-9229954D01*
X25219954Y-9390858D01*
X25089432Y-9577265D01*
X25089431Y-9577267D01*
X24993261Y-9783502D01*
X24993258Y-9783511D01*
X24934366Y-10003302D01*
X24934364Y-10003313D01*
X24914532Y-10229998D01*
X24914532Y-10230001D01*
X24934364Y-10456686D01*
X24934366Y-10456697D01*
X24993258Y-10676488D01*
X24993261Y-10676497D01*
X25089431Y-10882732D01*
X25089432Y-10882734D01*
X25219954Y-11069141D01*
X25380858Y-11230045D01*
X25380861Y-11230047D01*
X25567266Y-11360568D01*
X25625275Y-11387618D01*
X25677714Y-11433791D01*
X25696866Y-11500984D01*
X25676650Y-11567865D01*
X25625275Y-11612382D01*
X25567267Y-11639431D01*
X25567265Y-11639432D01*
X25380858Y-11769954D01*
X25219954Y-11930858D01*
X25089432Y-12117265D01*
X25089431Y-12117267D01*
X24993261Y-12323502D01*
X24993258Y-12323511D01*
X24934366Y-12543302D01*
X24934364Y-12543313D01*
X24914532Y-12769998D01*
X24914532Y-12770001D01*
X24934364Y-12996686D01*
X24934366Y-12996697D01*
X24993258Y-13216488D01*
X24993261Y-13216497D01*
X25089431Y-13422732D01*
X25089432Y-13422734D01*
X25219954Y-13609141D01*
X25380858Y-13770045D01*
X25380861Y-13770047D01*
X25567266Y-13900568D01*
X25625275Y-13927618D01*
X25677714Y-13973791D01*
X25696866Y-14040984D01*
X25676650Y-14107865D01*
X25625275Y-14152382D01*
X25567267Y-14179431D01*
X25567265Y-14179432D01*
X25380858Y-14309954D01*
X25219954Y-14470858D01*
X25089432Y-14657265D01*
X25089431Y-14657267D01*
X24993261Y-14863502D01*
X24993258Y-14863511D01*
X24934366Y-15083302D01*
X24934364Y-15083313D01*
X24914532Y-15309998D01*
X24914532Y-15310001D01*
X24934364Y-15536686D01*
X24934366Y-15536697D01*
X24993258Y-15756488D01*
X24993261Y-15756497D01*
X25089431Y-15962732D01*
X25089432Y-15962734D01*
X25219954Y-16149141D01*
X25380858Y-16310045D01*
X25380861Y-16310047D01*
X25567266Y-16440568D01*
X25773504Y-16536739D01*
X25993308Y-16595635D01*
X26155230Y-16609801D01*
X26219998Y-16615468D01*
X26220000Y-16615468D01*
X26220002Y-16615468D01*
X26276673Y-16610509D01*
X26446692Y-16595635D01*
X26666496Y-16536739D01*
X26872734Y-16440568D01*
X27059139Y-16310047D01*
X27220047Y-16149139D01*
X27350568Y-15962734D01*
X27446739Y-15756496D01*
X27505635Y-15536692D01*
X27525468Y-15310000D01*
X27505635Y-15083308D01*
X27446739Y-14863504D01*
X27350568Y-14657266D01*
X27220047Y-14470861D01*
X27220045Y-14470858D01*
X27059141Y-14309954D01*
X26872734Y-14179432D01*
X26872728Y-14179429D01*
X26814725Y-14152382D01*
X26762285Y-14106210D01*
X26743133Y-14039017D01*
X26763348Y-13972135D01*
X26814725Y-13927618D01*
X26872734Y-13900568D01*
X27059139Y-13770047D01*
X27072673Y-13756512D01*
X27133992Y-13723025D01*
X27203684Y-13728006D01*
X27248038Y-13756509D01*
X27921381Y-14429852D01*
X27954866Y-14491175D01*
X27957700Y-14517533D01*
X27957700Y-16061827D01*
X27993525Y-16241933D01*
X27993528Y-16241945D01*
X28022637Y-16312220D01*
X28063804Y-16411606D01*
X28063809Y-16411616D01*
X28165834Y-16564306D01*
X28165837Y-16564310D01*
X28300012Y-16698485D01*
X28300034Y-16698505D01*
X29197548Y-17596019D01*
X29231033Y-17657342D01*
X29226049Y-17727034D01*
X29184177Y-17782967D01*
X29118713Y-17807384D01*
X29109867Y-17807700D01*
X18437533Y-17807700D01*
X18370494Y-17788015D01*
X18349852Y-17771381D01*
X16872485Y-16294014D01*
X16839000Y-16232691D01*
X16843984Y-16162999D01*
X16885856Y-16107066D01*
X16951320Y-16082649D01*
X17019593Y-16097501D01*
X17029057Y-16103231D01*
X17078385Y-16136191D01*
X17078386Y-16136191D01*
X17078390Y-16136194D01*
X17163224Y-16171333D01*
X17248058Y-16206473D01*
X17398278Y-16236353D01*
X17428171Y-16242299D01*
X17428175Y-16242300D01*
X17428176Y-16242300D01*
X17641751Y-16242300D01*
X17708790Y-16261985D01*
X17729432Y-16278619D01*
X17760858Y-16310045D01*
X17760861Y-16310047D01*
X17947266Y-16440568D01*
X18153504Y-16536739D01*
X18373308Y-16595635D01*
X18535230Y-16609801D01*
X18599998Y-16615468D01*
X18600000Y-16615468D01*
X18600002Y-16615468D01*
X18656673Y-16610509D01*
X18826692Y-16595635D01*
X19046496Y-16536739D01*
X19252734Y-16440568D01*
X19439139Y-16310047D01*
X19439141Y-16310045D01*
X19470568Y-16278619D01*
X19531891Y-16245134D01*
X19558249Y-16242300D01*
X19761823Y-16242300D01*
X19761824Y-16242300D01*
X19791706Y-16236355D01*
X19941942Y-16206473D01*
X20015765Y-16175894D01*
X20111610Y-16136194D01*
X20264307Y-16034165D01*
X20394165Y-15904307D01*
X20394166Y-15904305D01*
X20401232Y-15897239D01*
X20401235Y-15897235D01*
X22984303Y-13314167D01*
X22984307Y-13314165D01*
X23114165Y-13184307D01*
X23216194Y-13031610D01*
X23244286Y-12963789D01*
X23286473Y-12861942D01*
X23322301Y-12681823D01*
X23322301Y-12498176D01*
X23322301Y-12493066D01*
X23322300Y-12493040D01*
X23322300Y-9917533D01*
X23341985Y-9850494D01*
X23358619Y-9829852D01*
X24529852Y-8658619D01*
X24591175Y-8625134D01*
X24617533Y-8622300D01*
X25261751Y-8622300D01*
X25328790Y-8641985D01*
G37*
%TD.AperFunction*%
M02*
